<?xml version="1.0" standalone="no"?><!DOCTYPE svg PUBLIC "-//W3C//DTD SVG 1.1//EN" "http://www.w3.org/Graphics/SVG/1.1/DTD/svg11.dtd"><svg t="1743844026461" class="icon" viewBox="0 0 1024 1024" version="1.1" xmlns="http://www.w3.org/2000/svg" p-id="3287" xmlns:xlink="http://www.w3.org/1999/xlink" width="32" height="32"><path d="M555.008 552.2944H495.7696V389.5808h59.2384a32.0512 32.0512 0 0 1 32.0512 32.0512v98.6112a32.0512 32.0512 0 0 1-32.0512 32.0512z" fill="#B28AE4" p-id="3288"></path><path d="M541.44 443.8016c-7.2192-18.688-2.9696-38.656 3.2768-54.1696h-48.896v162.7136h33.1264c18.2272-20.6336 27.2896-70.3488 12.4928-108.544z" fill="#9675CC" p-id="3289"></path><path d="M555.008 562.5856H495.8208a10.24 10.24 0 0 1-10.24-10.24V389.632a10.24 10.24 0 0 1 10.24-10.24h59.1872a42.3424 42.3424 0 0 1 42.3424 42.2912v98.56a42.3936 42.3936 0 0 1-42.3424 42.3424z m-48.9472-20.48h48.9472a21.9136 21.9136 0 0 0 21.8624-21.8624V421.6832a21.8624 21.8624 0 0 0-21.8624-21.8112h-48.9472z" fill="#231815" p-id="3290"></path><path d="M491.8784 586.0864l-91.4432 6.2976s-0.6656 45.4144-29.0304 80.7424-58.0096 90.8288-34.048 90.8288h58.2144a51.2 51.2 0 0 0 42.2912-22.0672c21.6064-31.232 56.1664-91.648 54.016-155.8016z" fill="#FF8E9E" p-id="3291"></path><path d="M443.4944 617.8304a35.4304 35.4304 0 0 1-1.6896-28.2624l-41.3696 2.816s-0.6656 45.4144-29.0304 80.7424a320.4608 320.4608 0 0 0-20.48 28.6208c16.128 19.6608 36.5056 35.3792 56.32 25.2416 43.3152-21.8624 48.4352-84.8896 36.2496-109.1584z" fill="#E26F85" p-id="3292"></path><path d="M395.5712 774.1952H337.3568a17.9712 17.9712 0 0 1-16.9984-10.24c-13.0048-27.1872 42.496-96.768 43.0592-97.28 25.6-32 26.7264-74.0352 26.7776-74.496a10.24 10.24 0 0 1 9.5232-10.24l91.4432-6.2976a10.24 10.24 0 0 1 7.5776 2.6112 10.24 10.24 0 0 1 3.3792 7.2192c2.2528 67.328-33.9968 130.4064-55.808 161.9968a61.44 61.44 0 0 1-50.7392 26.7264z m-56.8832-20.48h56.8832a40.96 40.96 0 0 0 33.8944-17.664c19.2-27.8016 50.3808-81.5104 52.1728-138.9568l-71.68 5.12a153.2416 153.2416 0 0 1-30.72 77.5168c-24.9344 30.976-40.4992 63.744-40.5504 73.9328z" fill="#231815" p-id="3293"></path><path d="M216.6784 507.4432c0-290.7136 120.4224-433.8176 298.7008-433.8176s299.776 145.408 299.776 433.8176c0 290.7136-121.4976 442.9312-299.776 442.9312s-298.7008-152.2176-298.7008-442.9312z m407.7056 0c0-230.4-48.8448-256.3584-109.0048-256.3584s-107.8784 25.856-107.8784 256.3584c0 231.68 47.6672 264.2944 107.8784 264.2944S624.64 739.1232 624.64 507.4432z" fill="#9EE090" p-id="3294"></path><path d="M624.64 507.4432c0 26.1632-0.6656 49.664-1.8432 70.9632 94.6688-41.4208 62.72-118.8352-6.8608-209.1008a896.5632 896.5632 0 0 1 8.704 138.1376zM575.1808 79.616a299.0592 299.0592 0 0 0-59.8016-5.9904c-178.2784 0-298.7008 143.104-298.7008 433.8176 0 283.0848 114.176 434.7392 284.7744 442.5216 3.6352-56.7296-17.5616-119.3984-56.32-145.9712s-41.984-64.9728-17.152-103.5776c-13.0048-39.6288-20.48-100.352-20.48-192.9728 0-230.4 47.6672-256.3584 107.8784-256.3584-83.5072-94.8736-3.84-146.9952 59.8016-171.4688z" fill="#7EC16F" p-id="3295"></path><path d="M515.3792 960.6144c-193.4336 0-308.9408-169.4208-308.9408-453.1712 0-143.104 28.416-254.8224 84.4288-331.9296 53.2992-73.1136 130.9184-112.128 224.512-112.128 148.0704 0 251.6992 94.976 291.84 267.3664a10.24 10.24 0 1 1-19.968 4.6592c-37.632-162.2016-134.1952-251.5456-271.7696-251.5456-183.296 0-288.4608 154.4192-288.4608 423.5776 0 270.9504 107.8272 432.6912 288.4608 432.6912s289.4336-161.8944 289.4336-432.6912c0-14.6944-0.3072-29.2352-0.9216-43.2128a10.24 10.24 0 1 1 20.48-0.9728c0.6656 14.336 0.9728 29.184 0.9728 44.1856-0.0512 283.7504-115.9168 453.1712-310.0672 453.1712z m0-178.6368c-63.0784 0-94.72-38.2976-109.3632-132.1472a10.24 10.24 0 0 1 20.48-3.1232c16.4864 105.9328 54.6304 114.7904 89.088 114.7904 36.9152 0 98.7648 0 98.7648-254.0544C614.4 280.1664 567.4496 261.12 515.3792 261.12c-40.96 0-97.6384 0-97.6384 246.1184 0 20.992 0.4096 40.96 1.1776 58.9824a10.24 10.24 0 1 1-20.48 0.9216c-0.768-18.4832-1.1776-38.6048-1.1776-59.904 0-222.7712 43.3152-266.5984 118.1184-266.5984C588.8 240.64 634.88 285.44 634.88 507.4432c0 227.8912-47.9232 274.5344-119.5008 274.5344z" fill="#231815" p-id="3296"></path><path d="M495.8208 491.776v-102.4S319.8464 373.76 279.1424 308.2752c-21.76-39.2704-41.6256-27.4432-48.6912-9.9328s-55.808 176.7424-25.6 302.08c15.36 51.2 45.1584 26.4704 68.5056 6.0928 46.5408-40.0896 107.52-47.6672 222.6688-54.272z" fill="#FFCE71" p-id="3297"></path><path d="M358.4 409.2416a118.4256 118.4256 0 0 0 71.68-29.6448C375.9616 368.64 303.4624 347.2384 279.1424 308.2752c-21.76-39.2704-41.6256-27.4432-48.6912-9.9328s-55.808 176.7424-25.6 302.08c15.36 51.2 45.1584 26.4704 68.5056 6.0928a178.4832 178.4832 0 0 1 76.8-37.5808c0-26.4704-21.0432-50.176-40.96-67.6352-30.6688-26.5728-14.8992-88.4224 49.2032-92.0576z" fill="#E8AF54" p-id="3298"></path><path d="M231.424 641.1776a27.9552 27.9552 0 0 1-8.1408-1.1776c-12.9024-3.6864-22.1696-15.6672-28.416-36.5568v-0.5632c-29.9008-124.928 16.4352-284.2624 26.2144-308.4288 5.4784-13.4656 15.6672-21.9648 27.2384-22.6304 14.4384-0.8704 27.8016 9.6256 39.8336 31.232 7.8848 12.4928 22.528 24.1664 43.52 34.7136A10.24 10.24 0 1 1 322.56 356.0448c-24.576-12.2368-41.984-26.5216-51.8656-42.3936l-0.3072-0.4096c-8.7552-15.872-16.4352-21.248-20.7872-20.992-3.328 0-7.1168 4.1984-9.472 9.9328-9.3696 23.1424-53.9136 175.9744-25.6 295.6288 3.8912 13.0048 9.0112 20.992 14.336 22.528 9.728 2.816 27.0848-12.3392 37.4784-21.4016 47.5648-40.96 106.8032-49.5616 219.1872-56.32V398.7968a668.2112 668.2112 0 0 1-114.3808-23.552 10.24 10.24 0 1 1 6.0928-19.5584A667.2384 667.2384 0 0 0 496.64 379.392a10.24 10.24 0 0 1 9.3184 10.24v162.7136a10.24 10.24 0 0 1-9.6768 10.24c-113.92 6.6048-172.4416 13.824-216.576 51.8656-13.056 11.4688-30.5152 26.7264-48.2816 26.7264z" fill="#231815" p-id="3299"></path><path d="M413.1328 182.528a31.5392 23.6544 0 1 0 63.0784 0 31.5392 23.6544 0 1 0-63.0784 0Z" fill="#FF8E9E" p-id="3300"></path><path d="M548.7104 182.528a31.5392 23.6544 0 1 0 63.0784 0 31.5392 23.6544 0 1 0-63.0784 0Z" fill="#FF8E9E" p-id="3301"></path><path d="M441.344 147.3536a21.8112 11.8272 90 1 0 23.6544 0 21.8112 11.8272 90 1 0-23.6544 0Z" p-id="3302"></path><path d="M560.5376 147.3536a21.8112 11.8272 90 1 0 23.6544 0 21.8112 11.8272 90 1 0-23.6544 0Z" p-id="3303"></path><path d="M501.0432 209.92a22.3232 22.3232 0 0 1-2.6112 0c-11.1616-1.6896-16.5376-13.6192-17.152-14.9504a8.2432 8.2432 0 0 1 15.36-6.5024c0.9728 2.2016 3.2256 5.12 4.4544 5.12s2.56-0.6144 5.7856-4.4544a8.0384 8.0384 0 0 1 6.3488-2.9184 8.2944 8.2944 0 0 1 6.3488 3.0208c2.9184 3.6352 4.8128 4.1984 5.12 4.1472s3.1744-2.6624 4.0448-4.8128a8.192 8.192 0 0 1 15.36 6.0928c-0.512 1.3824-5.5808 13.2608-16.7936 14.9504a18.3296 18.3296 0 0 1-13.9776-3.8912 19.7632 19.7632 0 0 1-12.288 4.1984z" p-id="3304"></path></svg>