<?xml version="1.0" standalone="no"?><!DOCTYPE svg PUBLIC "-//W3C//DTD SVG 1.1//EN" "http://www.w3.org/Graphics/SVG/1.1/DTD/svg11.dtd"><svg t="1743843940204" class="icon" viewBox="0 0 1024 1024" version="1.1" xmlns="http://www.w3.org/2000/svg" p-id="1349" xmlns:xlink="http://www.w3.org/1999/xlink" width="32" height="32"><path d="M660.48 279.5008l-43.3664-25.6 37.888-77.6192 47.4624 31.232a40.96 40.96 0 0 1 14.7456 56.32l-0.4096 0.7168a40.96 40.96 0 0 1-56.32 14.9504z" fill="#B28AE4" p-id="1350"></path><path d="M622.9504 241.9712a129.5872 129.5872 0 0 0 6.656 19.5072l11.6224 6.8096c28.928-5.9904 46.4896-33.4848 41.4208-58.4704a13.312 13.312 0 0 1 3.5328-12.8L658.9952 179.2l-5.12-0.512z" fill="#9675CC" p-id="1351"></path><path d="M680.96 295.424a51.2 51.2 0 0 1-25.6-7.0656l-43.3664-25.6a10.24 10.24 0 0 1-4.0448-13.3632l37.888-77.6192a10.24 10.24 0 0 1 14.6432-3.84l47.3088 31.0784a51.456 51.456 0 0 1 18.176 70.1952l-0.4096 0.7168a51.2 51.2 0 0 1-31.3856 23.7568 49.5616 49.5616 0 0 1-13.2096 1.7408z m-15.36-24.7808a30.72 30.72 0 0 0 42.3424-11.0592l0.4096-0.7168a31.0272 31.0272 0 0 0-11.1104-42.3424h-0.4096l-37.7856-24.832-28.6208 58.624z" fill="#231815" p-id="1352"></path><path d="M339.5072 802.3552h92.16V348.16h-81.92a65.3824 65.3824 0 0 1-65.024-65.3312 65.536 65.536 0 0 1 49.9712-63.488 502.3232 502.3232 0 0 0 128-49.5616 92.6208 92.6208 0 0 1 45.1584-11.5712H552.96a69.9904 69.9904 0 0 1 69.9904 69.9904v574.1568h66.56a77.312 77.312 0 0 1 77.2608 77.312 77.312 77.312 0 0 1-77.2608 77.2608H339.5072a77.312 77.312 0 0 1-77.312-77.2608 77.312 77.312 0 0 1 77.312-77.312z" fill="#54DAFE" p-id="1353"></path><path d="M558.848 956.928c-93.7472-85.9136-70.5536-206.5408-44.3392-296.96 31.8464-110.08-0.9216-175.4112-42.1888-340.992-26.7776-107.52 50.7392-143.36 108.4416-154.9312A69.1712 69.1712 0 0 0 552.96 158.208h-45.2096a92.6208 92.6208 0 0 0-45.1584 11.5712 502.3232 502.3232 0 0 1-128 49.5616 65.3312 65.3312 0 0 0 15.36 128.8704h81.92v454.144h-92.16a77.312 77.312 0 1 0 0 154.5728z" fill="#45BFDB" p-id="1354"></path><path d="M689.5104 967.168H339.5072a87.552 87.552 0 1 1 0-175.0528h81.92v-41.6256a10.24 10.24 0 0 1 20.48 0v51.8656a10.24 10.24 0 0 1-10.24 10.24h-92.16a67.072 67.072 0 1 0 0 134.0928h350.0032a67.072 67.072 0 0 0 0-134.0928h-66.56a10.24 10.24 0 0 1-10.24-10.24v-274.2784a10.24 10.24 0 0 1 20.48 0v264.0384h56.32a87.552 87.552 0 0 1 0 175.0528z m-257.6896-278.6816a10.24 10.24 0 0 1-10.24-10.24V358.4h-71.68a75.5712 75.5712 0 0 1-17.92-149.0432 488.9088 488.9088 0 0 0 125.3888-48.5888 103.3216 103.3216 0 0 1 50.176-12.8512H552.96a80.3328 80.3328 0 0 1 80.2304 80.2304v213.9648a10.24 10.24 0 0 1-20.48 0V228.1984A59.8016 59.8016 0 0 0 552.96 168.448h-45.2096a82.5856 82.5856 0 0 0-40.192 10.24 508.2112 508.2112 0 0 1-130.4064 50.5856A55.1424 55.1424 0 0 0 350.1056 337.92h81.92a10.24 10.24 0 0 1 10.24 10.24v330.0352a10.24 10.24 0 0 1-10.4448 10.2912z" fill="#231815" p-id="1355"></path><path d="M399.5648 291.5328a29.5424 22.1184 0 1 0 59.0848 0 29.5424 22.1184 0 1 0-59.0848 0Z" fill="#FF8E9E" p-id="1356"></path><path d="M506.0096 291.5328a29.5424 22.1184 0 1 0 59.0848 0 29.5424 22.1184 0 1 0-59.0848 0Z" fill="#FF8E9E" p-id="1357"></path><path d="M457.8816 312.2176a24.4224 13.3632 0 1 0 48.8448 0 24.4224 13.3632 0 1 0-48.8448 0Z" p-id="1358"></path><path d="M520.3456 264.8576m-15.872 0a15.872 15.872 0 1 0 31.744 0 15.872 15.872 0 1 0-31.744 0Z" p-id="1359"></path><path d="M447.1296 264.8576m-15.872 0a15.872 15.872 0 1 0 31.744 0 15.872 15.872 0 1 0-31.744 0Z" p-id="1360"></path><path d="M405.6064 199.936s109.0048-55.1424 225.28 63.0784l28.0064-99.9936c10.24-37.0688-64.7168-77.3632-97.28-86.4768s-118.1184-11.6224-128 24.1152z" fill="#FFCE71" p-id="1361"></path><path d="M514.5088 153.1904c-28.9792-12.7488-25.6-55.3472-2.5088-61.44a212.4288 212.4288 0 0 0 38.3488-17.408c-37.632-6.7584-107.9296-5.632-116.9408 26.5728-10.24 35.84-27.8016 99.2768-27.8016 99.2768s51.2-25.6 120.7808-4.1472c3.584-7.9872 12.2368-32.2048-11.8784-42.8544z" fill="#E8AF54" p-id="1362"></path><path d="M630.6816 273.2544a10.24 10.24 0 0 1-7.2704-3.072C534.3232 179.5072 451.2768 194.56 419.84 205.3632a16.1792 16.1792 0 0 1-20.48-19.712l24.576-87.7568c12.6976-45.3632 107.008-40.6528 140.7488-31.1808a179.2 179.2 0 0 1 23.6544 8.8064 10.24 10.24 0 0 1 5.12 13.568 10.24 10.24 0 0 1-13.5168 5.12 166.0416 166.0416 0 0 0-20.7872-7.7824C524.0832 76.8 450.56 78.3872 443.2896 103.424L420.864 183.552c37.888-10.8032 118.4768-19.3536 204.8 60.1088l23.3984-83.4048c3.1232-11.264-7.168-26.6752-28.2624-42.3424a10.24 10.24 0 1 1 12.2368-16.4352c36.7616 27.2896 39.7312 50.0224 35.84 64.3072l-28.3136 99.9424a10.24 10.24 0 0 1-7.3216 7.168 10.6496 10.6496 0 0 1-2.56 0.3584z" fill="#231815" p-id="1363"></path><path d="M493.4656 144.8448c43.2128-5.9392 88.8832 24.8832 88.8832 24.8832s17.92-39.9872-32.6656-54.3744c-40.1408-11.4176-55.9616 16.6912-56.2176 29.4912z" fill="#FF8E9E" p-id="1364"></path><path d="M551.3216 120.2176s-30.3104 10.8544-17.152 25.088C519.168 153.6 496.64 139.1616 496.64 139.1616s11.264-41.8816 54.6816-18.944z" fill="#E26F85" p-id="1365"></path><path d="M582.3488 179.968a10.24 10.24 0 0 1-5.7344-1.7408c-0.4096-0.3072-43.0592-28.5184-81.92-23.2448a10.24 10.24 0 0 1-11.6224-10.24 44.3904 44.3904 0 0 1 18.688-32.768c9.3184-6.912 25.6-13.6704 51.2-6.4512 19.5072 5.5296 32.6656 15.36 39.0144 29.0304a50.8928 50.8928 0 0 1 0 39.3728 10.24 10.24 0 0 1-6.5024 5.632 8.96 8.96 0 0 1-3.1232 0.4096z m-74.0864-46.08A161.4336 161.4336 0 0 1 575.1808 153.6a24.064 24.064 0 0 0-2.304-10.5984c-3.7888-7.9872-12.544-14.0288-26.0096-17.8688s-25.0368-2.7648-33.1264 3.2256a27.6992 27.6992 0 0 0-5.4784 5.5296z" fill="#231815" p-id="1366"></path><path d="M195.9936 785.0496m-40.8576 0a40.8576 40.8576 0 1 0 81.7152 0 40.8576 40.8576 0 1 0-81.7152 0Z" fill="#9675CC" p-id="1367"></path><path d="M207.616 773.376m-29.184 0a29.184 29.184 0 1 0 58.368 0 29.184 29.184 0 1 0-58.368 0Z" fill="#B28AE4" p-id="1368"></path><path d="M195.9936 836.1472a51.2 51.2 0 1 1 51.2-51.2 51.2 51.2 0 0 1-51.2 51.2z m0-81.92a30.72 30.72 0 1 0 30.72 30.72 30.72 30.72 0 0 0-30.72-30.5152z" fill="#231815" p-id="1369"></path><path d="M702.2592 486.4m-40.8576 0a40.8576 40.8576 0 1 0 81.7152 0 40.8576 40.8576 0 1 0-81.7152 0Z" fill="#9675CC" p-id="1370"></path><path d="M713.9328 474.7264m-29.184 0a29.184 29.184 0 1 0 58.368 0 29.184 29.184 0 1 0-58.368 0Z" fill="#B28AE4" p-id="1371"></path><path d="M702.2592 537.6a51.2 51.2 0 1 1 51.2-51.2 51.2 51.2 0 0 1-51.2 51.2z m0-81.92a30.72 30.72 0 1 0 30.72 30.72 30.72 30.72 0 0 0-30.72-30.72z" fill="#231815" p-id="1372"></path></svg>