<?xml version="1.0" standalone="no"?><!DOCTYPE svg PUBLIC "-//W3C//DTD SVG 1.1//EN" "http://www.w3.org/Graphics/SVG/1.1/DTD/svg11.dtd"><svg t="1743843972180" class="icon" viewBox="0 0 1024 1024" version="1.1" xmlns="http://www.w3.org/2000/svg" p-id="1524" xmlns:xlink="http://www.w3.org/1999/xlink" width="32" height="32"><path d="M270.2336 867.1232A81.92 81.92 0 0 1 296.96 807.0144c199.68-183.5008 331.8784-331.3152 331.8784-450.56 0-78.336-41.2672-111.6672-109.2608-111.6672-34.6624 0-64.9216 13.6192-92.16 33.792a82.7392 82.7392 0 0 1-109.056-9.6768A82.944 82.944 0 0 1 327.68 145.7664c61.7472-47.1552 127.5904-70.4512 216.7296-70.4512 165.9392 0 281.1392 105.984 281.1392 269.6192 0 147.456-103.8848 298.0352-235.264 430.5408 48.5888 0 78.592 0.4096 116.6336 0.4096H778.24a86.3744 86.3744 0 0 1 86.4256 86.3744A86.4256 86.4256 0 0 1 778.24 948.6848H351.8464a81.6128 81.6128 0 0 1-81.6128-81.5616z" fill="#FFCE71" p-id="1525"></path><path d="M482.7136 948.6848c-130.4576-35.84-60.5184-138.8544-16.3328-152.1152 49.2032-14.7968 86.1184-22.1696 108.288-155.0336s83.6608-125.4912 145.152-229.888-76.288-139.264-76.288-139.264l-46.08-14.7456a186.7264 186.7264 0 0 1-21.248-2.1504c33.4848 15.36 52.5824 47.7696 52.5824 100.9664 0 119.2448-132.2496 267.0592-331.8784 450.56a81.5616 81.5616 0 0 0 55.1424 141.6704zM327.68 145.7664a82.944 82.944 0 0 0 99.4816 132.8128c27.2384-20.1728 57.4976-33.792 92.16-33.792 5.5296 0 10.8544 0.3072 16.0256 0.7168-29.8496-10.496-62.208-30.0544-76.3392-66.56s2.9696-72.3968 24.6784-99.4816A323.9424 323.9424 0 0 0 327.68 145.7664z" fill="#E8AF54" p-id="1526"></path><path d="M778.24 958.9248H351.8464a91.8016 91.8016 0 0 1-62.1056-159.4368c128.5632-118.1696 208.8448-203.2128 260.2496-275.8656a10.24 10.24 0 0 1 16.7424 11.8784c-52.3264 73.7792-133.4784 159.8976-263.1168 279.04a71.3216 71.3216 0 0 0 48.2304 123.904H778.24a76.1856 76.1856 0 1 0 0-152.32H590.1824a10.24 10.24 0 0 1-7.2704-17.408c154.1632-155.4944 232.2944-297.9328 232.2944-423.3728 0-97.5872-41.8304-176.0256-117.76-220.8256a10.24 10.24 0 1 1 10.24-17.6128c82.4832 48.5888 128 133.12 128 238.4384 0 126.208-74.3936 267.5712-221.184 420.352H778.24a96.6656 96.6656 0 1 1 0 193.28z m-168.3968-508.7744a10.5984 10.5984 0 0 1-3.9424-0.768 10.24 10.24 0 0 1-5.4784-13.4144 208.4864 208.4864 0 0 0 17.92-79.5136c0-68.2496-32.3584-101.4272-99.0208-101.4272-28.9792 0-57.1392 10.24-86.0672 31.7952A93.184 93.184 0 0 1 321.536 137.6256c65.7408-50.176 134.5024-72.5504 222.9248-72.5504a359.168 359.168 0 0 1 78.1824 8.2944 10.24 10.24 0 1 1-4.4544 19.968 340.8384 340.8384 0 0 0-73.728-7.7824c-83.6096 0-148.48 21.0432-210.5344 68.352a72.704 72.704 0 0 0 87.04 116.4288c32.5632-24.1152 64.7168-35.84 98.2528-35.84 78.1824 0 119.5008 42.1376 119.5008 121.9072A228.608 228.608 0 0 1 619.52 443.904a10.24 10.24 0 0 1-9.6768 6.2464z" fill="#231815" p-id="1527"></path><path d="M467.5072 193.8944a35.6864 26.7776 0 1 0 71.3728 0 35.6864 26.7776 0 1 0-71.3728 0Z" fill="#FF8E9E" p-id="1528"></path><path d="M596.1728 193.8944a35.6864 26.7776 0 1 0 71.3728 0 35.6864 26.7776 0 1 0-71.3728 0Z" fill="#FF8E9E" p-id="1529"></path><path d="M503.1936 141.312a26.88 26.88 0 1 0 26.88 26.88 26.9312 26.9312 0 0 0-26.88-26.88z m0 41.4208a14.5408 14.5408 0 0 1 0-29.0304 13.2608 13.2608 0 0 1 3.2256 0.4096 10.9056 10.9056 0 0 0 4.352 20.8896 10.496 10.496 0 0 0 5.9904-1.8432 14.4896 14.4896 0 0 1-13.568 9.5744zM624.64 141.312a26.88 26.88 0 1 0 26.88 26.88A26.9312 26.9312 0 0 0 624.64 141.312z m0 41.4208a14.5408 14.5408 0 1 1 0-29.1328 13.1584 13.1584 0 0 1 3.1744 0.4096 10.9056 10.9056 0 0 0 4.352 20.8896 10.6496 10.6496 0 0 0 6.0416-1.8432 14.4896 14.4896 0 0 1-13.568 9.6768zM493.8752 137.4208h21.248a9.3184 9.3184 0 1 0 0-18.5856h-21.248a9.3184 9.3184 0 0 0 0 18.5856zM613.8368 137.4208H634.88a9.3184 9.3184 0 1 0 0-18.5856h-21.248a9.3184 9.3184 0 0 0 0 18.5856zM542.72 191.0272a9.3184 9.3184 0 1 0 9.6768 15.872 15.8208 15.8208 0 0 1 20.48 3.9424 9.3184 9.3184 0 0 0 13.056 1.024 9.3184 9.3184 0 0 0 1.024-13.1072 34.3552 34.3552 0 0 0-44.2368-7.7312z" p-id="1530"></path><path d="M320.6656 766.3104c125.6448-33.6384 85.1968-204.8 70.1952-255.3856a19.712 19.712 0 0 0-18.944-14.2848h-163.84A19.8144 19.8144 0 0 0 189.44 510.7712c-55.7056 179.9168 22.272 248.2688 73.9328 255.5392a31.0784 31.0784 0 0 0 12.9024 20.48l-12.1856 146.176H237.568a14.6944 14.6944 0 0 0-14.6944 14.6432 2.4576 2.4576 0 0 0 2.4576 2.5088h127.232a2.4576 2.4576 0 0 0 2.4576-2.5088 14.6944 14.6944 0 0 0-14.6944-14.6432h-23.2448l-11.52-145.5104a32.5632 32.5632 0 0 0 15.104-21.1456z" fill="#9EA2E3" p-id="1531"></path><path d="M220.16 747.52c-9.3696-40.1408-0.9216-66.56 17.8176-85.1968 12.1856-12.288 87.3984-51.2 39.7312-104.5504-18.3296-20.9408-9.1136-42.4448 9.0112-61.1328H208.128A19.8144 19.8144 0 0 0 189.44 510.7712c-41.4208 133.12-9.472 205.1072 30.72 236.7488z" fill="#7F86C6" p-id="1532"></path><path d="M263.168 766.3104c6.7584 33.5872 49.3056 32.8704 57.4976 0 90.5728-24.2176 94.8224-119.8592 84.5312-190.3616H174.08c-20.48 131.6352 44.1856 184.064 89.088 190.3616z" fill="#FF8E9E" p-id="1533"></path><path d="M174.08 576.1536a319.5904 319.5904 0 0 0-3.7888 45.2608V632.32c0 3.2256 0.3072 6.3488 0.512 9.4208a207.2576 207.2576 0 0 0 3.7888 26.88v0.5632c0.512 2.4576 1.0752 5.12 1.7408 7.2192a10.24 10.24 0 0 0 0.3584 1.3312c0.5632 2.0992 1.1264 4.1984 1.792 6.1952l0.4608 1.4848c0.6144 1.9968 1.3312 3.9936 2.048 5.888a11.52 11.52 0 0 0 0.4096 1.2288c1.7408 4.608 3.6352 8.96 5.632 13.056 0.256 0.512 0.512 0.9216 0.7168 1.4336 0.768 1.4848 1.536 2.9184 2.3552 4.352l1.28 2.2528c0.6144 1.0752 1.2288 2.1504 1.8944 3.1744s1.024 1.6384 1.5872 2.4576 1.1264 1.7408 1.7408 2.6112l1.792 2.6112 1.5872 2.048c0.6656 0.9216 1.3824 1.8432 2.0992 2.7136l0.768 0.9216a115.9168 115.9168 0 0 0 9.5744 10.24l0.4608 0.4096 3.2768 2.9696 0.512 0.4096c1.1264 0.9728 2.304 1.9456 3.4816 2.816-9.3696-40.1408-0.9216-66.56 17.8176-85.1968 10.752-10.8032 70.4-42.24 51.7632-86.1696H174.08z" fill="#E26F85" p-id="1534"></path><path d="M284.672 586.1888H174.08a10.24 10.24 0 1 1 0-20.48h110.592a10.24 10.24 0 1 1 0 20.48zM291.1232 801.4848h-0.8704c-18.5856-0.4608-33.1776-13.4656-37.12-33.1776a10.24 10.24 0 1 1 20.0704-3.9936c2.048 10.24 8.6016 16.4864 17.5104 16.6912a20.48 20.48 0 0 0 20.0192-17.152 10.24 10.24 0 0 1 7.2704-7.424c78.6432-21.0432 86.6304-102.4 78.2336-170.24H337.92a10.24 10.24 0 0 1 0-20.48h67.2768a10.24 10.24 0 0 1 10.24 8.7552c15.6672 107.2128-15.0528 178.0224-86.5792 200.192a40.3456 40.3456 0 0 1-37.7344 26.8288z" fill="#231815" p-id="1535"></path><path d="M352.5632 960.2048H225.28a12.4416 12.4416 0 0 1-8.96-3.6864 12.6976 12.6976 0 0 1-3.7376-9.0624 24.9856 24.9856 0 0 1 24.9344-24.8832h16.896l10.9056-131.3792a40.6016 40.6016 0 0 1-10.24-15.9232 112.0768 112.0768 0 0 1-66.2016-46.4896 10.24 10.24 0 1 1 16.7424-11.7248c15.0528 21.4016 37.0688 35.84 58.9824 39.1168a10.24 10.24 0 0 1 8.6016 8.1408A20.48 20.48 0 0 0 281.6 778.24a10.24 10.24 0 0 1 4.5568 9.3696l-12.1856 146.2272a10.24 10.24 0 0 1-2.6624 6.0416h38.144a10.24 10.24 0 0 1-2.7136-6.0928l-11.52-145.5104a10.24 10.24 0 0 1 5.12-9.6768 22.3744 22.3744 0 0 0 10.24-14.592 10.24 10.24 0 0 1 7.2704-7.424 97.8432 97.8432 0 0 0 62.9248-47.36c35.1744-62.72 8.96-165.2736 0-195.2256A9.3696 9.3696 0 0 0 371.9168 506.88h-163.84a9.6256 9.6256 0 0 0-9.1136 6.7584c-17.0496 55.04-22.528 103.168-16.2816 143.0528a10.24 10.24 0 1 1-20.224 3.1744c-6.7584-43.008-1.024-94.208 16.9472-152.2688A29.8496 29.8496 0 0 1 208.128 486.4h163.84a29.7984 29.7984 0 0 1 28.7744 21.4528c12.0832 40.96 36.1472 143.36-1.8944 211.0976a116.6848 116.6848 0 0 1-70.0928 55.7056 42.9056 42.9056 0 0 1-12.544 17.664l10.24 130.2528h13.7728a25.0368 25.0368 0 0 1 24.9344 24.8832 12.9024 12.9024 0 0 1-3.7376 9.0624 12.544 12.544 0 0 1-8.8576 3.6864z" fill="#231815" p-id="1536"></path></svg>