<?xml version="1.0" standalone="no"?><!DOCTYPE svg PUBLIC "-//W3C//DTD SVG 1.1//EN" "http://www.w3.org/Graphics/SVG/1.1/DTD/svg11.dtd"><svg t="1743843980047" class="icon" viewBox="0 0 1024 1024" version="1.1" xmlns="http://www.w3.org/2000/svg" p-id="1688" xmlns:xlink="http://www.w3.org/1999/xlink" width="32" height="32"><path d="M437.3504 732.6208l-66.56-66.56 43.9296-36.608 60.1088 67.8912a30.72 30.72 0 1 1 14.592 56.32 13.2096 13.2096 0 0 1-1.9968 0 30.1056 30.1056 0 0 1 0 4.8128 30.72 30.72 0 1 1-50.176-25.6z" fill="#FFCE71" p-id="1689"></path><path d="M485.8368 766.1568c-33.8432-7.936-34.4576-43.1616-36.1472-61.44-1.8432-18.9952-34.9184-57.0368-36.7104-58.4192l-8.192-8.6016-33.9968 28.5184 66.56 66.56a30.72 30.72 0 1 0 48.4864 33.536z" fill="#E8AF54" p-id="1690"></path><path d="M457.0624 796.8768h-2.816a40.96 40.96 0 0 1-30.72-63.744L363.52 673.536a10.24 10.24 0 0 1 0.6656-15.36l43.8272-36.8128a10.24 10.24 0 0 1 14.2336 1.0752l55.04 62.0032a40.1408 40.1408 0 0 1 16.896-2.4064 40.96 40.96 0 0 1 2.9184 81.152 40.96 40.96 0 0 1-40.0896 33.4336z m-71.1168-129.9456l58.624 58.4192a10.24 10.24 0 0 1 3.0208 7.68 10.24 10.24 0 0 1-3.6352 7.424 20.48 20.48 0 0 0-7.2704 14.1824 20.48 20.48 0 0 0 5.12 14.7968 20.48 20.48 0 0 0 28.7232 1.9456 20.48 20.48 0 0 0 6.9632-13.9776 24.2688 24.2688 0 0 0 0-3.2256 10.24 10.24 0 0 1 3.1232-8.2944 10.24 10.24 0 0 1 8.448-2.7136h1.28a20.48 20.48 0 1 0-9.6768-37.376 10.24 10.24 0 0 1-13.2096-1.792l-53.6064-60.416z" fill="#231815" p-id="1691"></path><path d="M244.736 771.7888a81.152 81.152 0 0 1 107.9808-21.504 220.7232 220.7232 0 0 0 116.736 35.4816c78.08 0 128.9728-32.768 128.9728-96.1536 0-61.9008-28.1088-102.4-146.5856-112.64A74.5472 74.5472 0 0 1 383.488 502.8352 74.5984 74.5984 0 0 1 448.8704 429.056c92.4672-12.032 123.5456-51.8144 123.5456-107.1104 0-57.7024-33.9456-89.3952-96.1536-89.3952A176.0768 176.0768 0 0 0 380.5696 261.12a79.104 79.104 0 0 1-102.4-16.64 78.8992 78.8992 0 0 1 21.4528-118.6304 365.1584 365.1584 0 0 1 185.9584-50.7392c174.08 0 288.4608 81.4592 288.4608 231.936 0 113.3056-81.4592 174.08-99.1744 185.9072a1.8944 1.8944 0 0 0 0.5632 3.3792c71.68 20.48 125.7984 88.7296 125.7984 206.6432 0 157.2864-143.6672 245.504-311.1424 245.504-93.44 0-167.4752-22.7328-224.4608-60.7744a81.6128 81.6128 0 0 1-20.8896-115.9168z" fill="#B28AE4" p-id="1692"></path><path d="M569.7024 756.224c-22.528 19.5584-57.2416 29.5424-100.2496 29.5424a220.7232 220.7232 0 0 1-116.736-35.4816 81.152 81.152 0 0 0-107.9808 21.504 81.6128 81.6128 0 0 0 20.48 116.1216c46.8992 31.2832 105.3184 52.224 176.5888 58.6752-28.416-30.0032-35.84-81.92-17.7152-104.448 22.9888-28.9792 76.1344 7.2192 131.6864-36.2496 16.0256-12.288 18.0736-30.0544 13.9264-49.664zM631.7056 99.6864c-41.5744-16.0768-90.9312-24.3712-146.3808-24.3712a365.1584 365.1584 0 0 0-185.9584 50.7392 78.8992 78.8992 0 0 0-21.4528 118.6304 79.104 79.104 0 0 0 102.4 16.64A176.0768 176.0768 0 0 1 476.16 232.5504c62.208 0 96.1536 31.6928 96.1536 89.3952 0 55.296-31.0784 95.0784-123.5456 107.1104a74.2912 74.2912 0 0 0 2.9696 147.8144c47.9232 4.2496 81.0496 13.3632 103.5264 26.8288 12.6464-29.696-17.8688-63.8464-24.9856-81.92-8.5504-21.5552-11.776-51.712 58.5216-66.816s67.6864-190.3104-2.4064-216.8832-94.208-79.7184-61.44-122.0096c15.3088-20.4288 62.3616-21.0944 106.752-16.384z" fill="#9675CC" p-id="1693"></path><path d="M489.8304 958.9248c-90.624 0-168.0384-21.0432-230.144-62.5152a91.7504 91.7504 0 0 1 98.4064-154.8288c36.5568 22.528 73.984 33.9456 111.36 33.9456 75.4688 0 118.7328-31.2832 118.7328-85.9136 0-55.8592-22.9376-92.4672-137.2672-102.4a84.5824 84.5824 0 0 1-3.3792-168.2432A229.7344 229.7344 0 0 0 506.88 404.0192a10.24 10.24 0 0 1 8.0384 18.8416 249.2416 249.2416 0 0 1-64.8704 16.3328 64.0512 64.0512 0 0 0 2.56 127.488c110.7456 9.728 155.904 45.3632 155.904 122.88 0 66.56-52.0192 106.3936-139.2128 106.3936-40.96 0-82.2784-12.4416-122.112-37.0176a71.3216 71.3216 0 0 0-94.3616 18.8416 71.68 71.68 0 0 0 18.0736 101.5296c58.6752 39.2192 132.2496 59.0848 218.7776 59.0848 109.3632 0 205.4656-39.1168 257.024-104.6528a10.24 10.24 0 1 1 16.0768 12.6464c-56.2176 71.5776-155.5968 112.5376-272.9472 112.5376z m304.64-189.7984a13.3632 13.3632 0 0 1-2.4576-0.256 10.24 10.24 0 0 1-7.4752-12.3904 226.4576 226.4576 0 0 0 6.1952-53.2992c0-103.424-43.1616-175.1552-118.3744-196.8128a12.288 12.288 0 0 1-8.6528-9.728 12.1344 12.1344 0 0 1 5.12-11.9296c15.8208-10.5984 94.6176-68.864 94.6176-177.408 0-138.8544-103.9872-221.696-278.2208-221.696a354.0992 354.0992 0 0 0-180.8384 49.3568 68.6592 68.6592 0 0 0-18.688 103.2704 69.2736 69.2736 0 0 0 89.3952 14.3872A186.5728 186.5728 0 0 1 476.16 222.3104c67.6352 0 106.3936 36.3008 106.3936 99.6352a117.0944 117.0944 0 0 1-8.704 46.3872 10.24 10.24 0 0 1-18.8416-8.0896 95.232 95.232 0 0 0 7.0656-38.2976c0-51.7632-29.696-79.1552-85.9136-79.1552a166.5536 166.5536 0 0 0-90.3168 27.2384A89.1392 89.1392 0 0 1 250.88 178.4832a88.832 88.832 0 0 1 43.2128-61.44 374.6304 374.6304 0 0 1 191.232-51.968c187.0336 0 298.7008 90.5216 298.7008 242.176 0 99.6864-60.7232 160.7168-90.5728 184.6784 74.0864 29.1328 117.76 106.752 117.76 211.2512a246.4768 246.4768 0 0 1-6.8096 58.1632 10.24 10.24 0 0 1-9.9328 7.7824z" fill="#231815" p-id="1694"></path><path d="M392.2944 482.2016c18.3296 29.5936 82.7392 144.5376 33.3824 195.4816s-118.1184-2.6624-146.4832-20.48c-24.9344-15.8208-91.5968-80.5888-58.5728-121.3952C244.1216 503.3984 350.3616 414.72 392.2944 482.2016z" fill="#FF8F71" p-id="1695"></path><path d="M425.5232 677.7856c-63.3344-9.8816-87.04-46.7968-83.6608-79.9232 3.584-35.328-19.0464-33.536-32.6144-67.9424-7.7824-19.712 8.448-49.152 23.7568-70.7584-45.312 9.3184-96.8704 55.1936-112.64 76.4416-20.48 25.6-2.3552 60.3648 20.48 87.04a218.9312 218.9312 0 0 0 20.48 21.0432 143.872 143.872 0 0 0 17.4592 13.568c28.7232 17.7664 97.4336 71.2192 146.7392 20.5312z" fill="#EA745C" p-id="1696"></path><path d="M376.832 709.376c-37.0176 0-73.5744-24.2176-94.976-38.4l-8.1408-5.12a10.24 10.24 0 0 1 11.008-17.2544c2.5088 1.5872 5.12 3.4816 8.448 5.5296 41.6256 27.5456 89.0368 53.8624 125.1328 16.5888 46.6432-48.0768-26.2656-169.2672-34.7136-182.9376a38.7072 38.7072 0 0 0-33.1264-19.8656C307.2 465.92 245.76 518.8096 228.9152 541.6448c-19.712 24.3712 8.5504 61.44 21.6064 76.0832a10.24 10.24 0 0 1-15.36 13.568c-35.3792-40.0896-43.3664-76.3392-22.4768-102.4 17.3568-23.8592 84.6336-83.8656 138.5472-81.92a59.2896 59.2896 0 0 1 49.7664 29.4912c15.36 24.576 88.2688 149.9648 32.0512 208.0256a75.6736 75.6736 0 0 1-56.2176 24.8832z" fill="#231815" p-id="1697"></path><path d="M464.218221 513.99402a21.3504 28.4672 86.72 1 0 56.841133-3.257532 21.3504 28.4672 86.72 1 0-56.841133 3.257532Z" fill="#FF8E9E" p-id="1698"></path><path d="M566.628708 508.144606a21.3504 28.4672 86.72 1 0 56.841133-3.257532 21.3504 28.4672 86.72 1 0-56.841133 3.257532Z" fill="#FF8E9E" p-id="1699"></path><path d="M641.5872 465.408a6.8096 6.8096 0 0 0-8.3968-4.7104 136.448 136.448 0 0 1-43.9808 2.4576 6.8096 6.8096 0 1 0-1.4848 13.568c0.4096 0 4.3008 0.4608 10.24 0.7168a17.3568 17.3568 0 1 0 34.0992 3.4304 17.8688 17.8688 0 0 0-1.3312-5.5296c2.1504-0.4096 4.3008-0.9216 6.3488-1.4848a6.8096 6.8096 0 0 0 4.5056-8.448zM480.8192 473.4464c1.4848-1.4848 2.9696-3.0208 4.4544-4.7616a6.8096 6.8096 0 0 0-10.24-8.8064c-12.7488 15.36-26.1632 15.36-26.88 15.36a6.8096 6.8096 0 0 0-0.5632 13.6192h1.9456a40.96 40.96 0 0 0 5.9904-0.8704v1.9456a17.408 17.408 0 1 0 25.6-16.2304zM569.9584 529.92a14.0288 14.0288 0 0 1-11.3152-14.7968 7.6288 7.6288 0 0 0-15.36-1.2288 29.696 29.696 0 0 0 0.9728 9.6768c-7.0656 13.1072-23.296 7.0144-25.1904 6.2464a7.6288 7.6288 0 0 0-5.888 14.08 44.2368 44.2368 0 0 0 18.7904 3.1744A29.952 29.952 0 0 0 552.96 537.6a30.72 30.72 0 0 0 13.1584 6.912 7.3728 7.3728 0 0 0 2.3552 0.256 7.68 7.68 0 0 0 6.9632-5.6832 7.5776 7.5776 0 0 0-5.4784-9.1648z" p-id="1700"></path></svg>