<?xml version="1.0" standalone="no"?><!DOCTYPE svg PUBLIC "-//W3C//DTD SVG 1.1//EN" "http://www.w3.org/Graphics/SVG/1.1/DTD/svg11.dtd"><svg t="1743843986703" class="icon" viewBox="0 0 1024 1024" version="1.1" xmlns="http://www.w3.org/2000/svg" p-id="2024" xmlns:xlink="http://www.w3.org/1999/xlink" width="32" height="32"><path d="M240.3328 765.1328a79.5648 79.5648 0 0 1 106.24-21.1456c34.9696 21.504 73.8816 35.3792 115.968 35.3792 81.92 0 133.12-44.3904 133.12-131.9936 0-85.2992-51.2-130.816-123.9552-130.816-31.3344 0-51.8656 4.096-77.1072 16.384a89.344 89.344 0 0 1-88.1664-5.12A89.2928 89.2928 0 0 1 266.24 448.256l15.36-296.96a74.496 74.496 0 0 1 74.1888-70.4512h320.6144a84.1728 84.1728 0 0 1 84.1728 84.1728 84.1728 84.1728 0 0 1-84.1728 84.1728H459.1104L449.1776 363.52c30.72-12.544 54.2208-18.944 86.0672-18.944 143.36 0 262.912 115.3536 262.912 298.496 0 190.0032-143.36 300.3392-306.0736 300.3392-96.8192 0-172.1344-26.1632-231.7312-65.2288a79.4112 79.4112 0 0 1-20.0192-113.0496z" fill="#FF8E9E" p-id="2025"></path><path d="M281.6 151.4496l-15.36 296.96a89.1904 89.1904 0 0 0 128.4608 84.6848A148.48 148.48 0 0 1 452.7104 517.12c-45.3632-25.088-48.64-80.9472-15.9744-111.5648 16.0256-15.0528 22.016-30.208 21.76-46.08-3.072 1.1776-6.144 2.3552-9.3184 3.6864l2.8672-33.2288c-7.0656-18.6368-18.8928-38.5024-30.72-60.5184-28.8768-54.0672 5.12-94.6176 82.8928-137.0112 34.2016-18.688 31.3856-37.0176 17.5616-51.6608H355.7888A74.496 74.496 0 0 0 281.6 151.4496zM553.9328 759.9104s105.472 17.152 129.792-72.0896c22.2208-81.408-59.8528-146.2784-148.0192-156.3648 36.9664 19.712 59.904 58.88 59.904 115.9168 0 87.6032-51.2 131.9936-133.12 131.9936-42.0864 0-80.9984-13.8752-115.968-35.3792a79.5648 79.5648 0 0 0-106.24 21.1456 79.4112 79.4112 0 0 0 20.0192 112.64c56.32 36.7616 126.1056 62.1056 215.04 64.9728 17.8176-29.1328 17.0496-73.7792 11.9808-106.3424-9.1136-57.5488 66.6112-76.4928 66.6112-76.4928z" fill="#E26F85" p-id="2026"></path><path d="M492.0832 953.3952c-89.7024 0-169.5744-22.528-237.312-66.9184a87.6544 87.6544 0 0 1-38.4-58.0096 90.0608 90.0608 0 0 1 135.5776-93.2352c36.5056 22.4768 73.6768 33.8944 110.592 33.8944 79.2064 0 122.88-43.264 122.88-121.7536 0-75.52-42.496-120.576-113.7152-120.576-30.3616 0-49.3568 3.9936-72.6016 15.36A99.5328 99.5328 0 0 1 256 447.744l5.632-108.4416a10.24 10.24 0 0 1 20.48 1.0752L276.48 448.768a79.0016 79.0016 0 0 0 113.6128 75.008c26.0608-12.7488 48.1792-17.4592 81.5616-17.4592 82.7904 0 134.1952 54.0672 134.1952 141.056 0 90.368-52.224 142.2336-143.36 142.2336-40.96 0-81.5616-12.4416-121.344-36.9152a69.5296 69.5296 0 0 0-104.6016 72.0896 67.1232 67.1232 0 0 0 29.44 44.544c64.3584 42.1888 140.4416 63.5904 226.0992 63.5904 87.9616 0 169.4208-33.7408 223.488-92.5184a10.24 10.24 0 1 1 15.0528 13.824c-57.9072 63.0272-144.8448 99.1744-238.5408 99.1744z m289.9456-196.4544a10.24 10.24 0 0 1-3.2256-0.512 10.24 10.24 0 0 1-6.5024-12.9536 318.208 318.208 0 0 0 15.36-100.6592c0-167.0144-106.2912-288.256-252.672-288.256-31.4368 0-53.9648 6.656-82.2272 18.176a10.24 10.24 0 0 1-14.08-10.24l10.24-114.0224a10.24 10.24 0 0 1 10.24-9.3696h217.2928a73.9328 73.9328 0 0 0 0-147.8656H355.7888A64.2048 64.2048 0 0 0 291.84 151.9616L287.8464 225.28a10.24 10.24 0 0 1-20.48-1.0752L271.36 150.9376a84.6336 84.6336 0 0 1 84.4288-80.3328h320.6144a94.4128 94.4128 0 0 1 0 188.8256H468.48L460.8 347.7504a206.0288 206.0288 0 0 1 74.4448-13.6704c158.2592 0 273.152 129.8432 273.152 308.736a339.968 339.968 0 0 1-16.64 107.1616 10.24 10.24 0 0 1-9.728 6.9632z" fill="#231815" p-id="2027"></path><path d="M476.672 706.56a21.3504 21.3504 0 0 1-11.5712-3.4304l-69.9904-45.1584a21.504 21.504 0 0 1-6.4-29.6448l12.2368-18.944a10.24 10.24 0 0 1 6.4512-4.4544 10.24 10.24 0 0 1 7.68 1.4336l88.832 57.2928a10.24 10.24 0 0 1 4.4544 6.4512 10.24 10.24 0 0 1-1.4336 7.68l-12.1856 18.944a21.2992 21.2992 0 0 1-13.4656 9.1648 19.456 19.456 0 0 1-4.608 0.6656z m-64.1024-77.6192l-6.656 10.24a1.0752 1.0752 0 0 0 0.3072 1.3312L476.16 685.7728a1.0752 1.0752 0 0 0 1.3312-0.3072l6.656-10.24z" fill="#231815" p-id="2028"></path><path d="M628.3264 592.2816a118.784 118.784 0 1 0-206.5408-12.288 18.0736 18.0736 0 0 1-1.1264 17.5616L396.4928 634.88a9.6768 9.6768 0 0 0 2.8672 13.3632l72.6016 46.7968a9.6256 9.6256 0 0 0 13.312-2.8672l24.1664-37.4784a17.8176 17.8176 0 0 1 15.36-8.2432 118.784 118.784 0 0 0 103.5264-54.1696z" fill="#FFCE71" p-id="2029"></path><path d="M462.5408 542.0544c14.4896-7.3728 51.9168-30.72 56.32-88.2688 1.792-24.1152 21.6064-34.9696 43.9296-39.5264a118.6304 118.6304 0 0 0-140.9024 165.7344 18.0736 18.0736 0 0 1-1.1264 17.5616L396.4928 634.88a9.6768 9.6768 0 0 0 2.8672 13.3632l72.6016 46.7968a9.6256 9.6256 0 0 0 13.312-2.8672l9.9328-15.36c-85.6064-62.9248-46.2848-127.744-32.6656-134.7584z" fill="#E8AF54" p-id="2030"></path><path d="M477.1328 706.9696a19.7632 19.7632 0 0 1-10.752-3.1744l-72.5504-46.7968a19.968 19.968 0 0 1-5.9392-27.5456l24.1664-37.4272a7.7312 7.7312 0 0 0 0.512-7.5776A129.024 129.024 0 0 1 634.88 455.0656a10.24 10.24 0 0 1-16.896 11.5712 107.52 107.52 0 0 0-34.304-32.2048 108.544 108.544 0 0 0-152.7296 141.056 28.3648 28.3648 0 0 1-1.6896 27.648l-23.8592 36.864 71.68 46.08 23.8592-36.9664a28.0064 28.0064 0 0 1 24.3712-12.9536 108.5952 108.5952 0 0 0 111.5648-116.4288 10.24 10.24 0 0 1 20.48-1.4848 129.0752 129.0752 0 0 1-132.608 138.24 7.5264 7.5264 0 0 0-6.5536 3.584l-24.1664 37.4272a19.8656 19.8656 0 0 1-16.896 9.472zM453.632 726.528a10.24 10.24 0 0 1-5.5296-1.5872L380.3136 680.96a10.24 10.24 0 1 1 11.1104-17.2032l67.7888 43.7248a10.24 10.24 0 0 1-5.5808 18.8416zM425.8304 739.2768a10.496 10.496 0 0 1-5.5296-1.6384L380.16 711.68a10.24 10.24 0 0 1 11.1104-17.2032l40.1408 25.9072a10.24 10.24 0 0 1 3.072 14.1312 10.24 10.24 0 0 1-8.6528 4.7616z" fill="#231815" p-id="2031"></path><path d="M503.5008 496.128l70.8608-14.08a3.072 3.072 0 0 1 3.1744 4.6592l-26.7264 41.3696a3.0208 3.0208 0 0 0-0.3584 2.56l9.5232 30.72a3.072 3.072 0 0 1-2.304 3.8912l-69.4784 15.0016a3.072 3.072 0 0 1-3.1744-4.6592l28.7232-43.8272a2.9696 2.9696 0 0 0 0-2.9184l-12.6976-28.4672a3.0208 3.0208 0 0 1 2.4576-4.2496z" fill="#B28AE4" p-id="2032"></path><path d="M487.5264 590.4896a13.312 13.312 0 0 1-11.0592-20.48l26.5728-40.5504-11.0592-24.8832a13.2096 13.2096 0 0 1 0.3072-11.52A13.4144 13.4144 0 0 1 501.76 486.0416l70.8608-14.0288a13.312 13.312 0 0 1 13.7728 20.48l-24.8832 38.6048 8.4992 27.4432a13.2608 13.2608 0 0 1-9.8816 16.896l-69.5296 15.0016a13.1584 13.1584 0 0 1-3.072 0.0512z m26.8288-86.0672l9.0112 20.48A13.3632 13.3632 0 0 1 522.24 537.6l-19.1488 29.1328 44.6464-9.6256-7.168-23.1936a13.1072 13.1072 0 0 1 1.536-11.1104l17.5104-27.136z m-10.8544-8.2944z" fill="#231815" p-id="2033"></path><path d="M226.7648 593.0496l24.3712 1.2288a3.2768 3.2768 0 0 0 1.6896-0.3584l21.8624-11.52a3.328 3.328 0 0 1 5.12 3.1232l-1.3312 27.0848a3.1744 3.1744 0 0 0 0.4096 1.792l10.24 19.0976a3.328 3.328 0 0 1-2.9184 5.12h-24.6272a3.2256 3.2256 0 0 0-1.3824 0.3072l-21.9136 10.24a3.328 3.328 0 0 1-4.7616-3.2256l1.4336-24.3712a3.0208 3.0208 0 0 0-0.3072-1.6384l-11.0592-22.1184a3.328 3.328 0 0 1 3.1744-4.7616z" fill="#B28AE4" p-id="2034"></path><path d="M236.8512 659.712a13.7216 13.7216 0 0 1-7.6288-2.304 13.4144 13.4144 0 0 1-5.888-12.032l1.3312-22.528-10.24-20.48a13.568 13.568 0 0 1 12.8512-19.6096l22.4768 1.1776 20.1728-10.496a13.568 13.568 0 0 1 19.8656 12.6976l-1.28 25.1392 9.5744 17.3568a13.6192 13.6192 0 0 1-11.8272 20.1216H263.168l-20.48 9.6256a13.7728 13.7728 0 0 1-5.8368 1.3312z m1.2288-55.8592l5.7344 11.4688a13.7728 13.7728 0 0 1 1.3824 6.8608l-0.768 12.6976 11.5712-5.12a13.5168 13.5168 0 0 1 5.632-1.28h13.056l-5.12-8.9088a13.6192 13.6192 0 0 1-1.6384-7.2192l0.768-14.9504-11.1616 5.8368a13.6192 13.6192 0 0 1-6.9632 1.536z m50.3296 9.2672z m-62.208-9.8816z m21.8624-18.3808z" fill="#231815" p-id="2035"></path><path d="M750.5408 320.0512l24.3712 1.28a3.4816 3.4816 0 0 0 1.7408-0.4096l22.0672-11.4688a3.328 3.328 0 0 1 4.864 3.072l-1.3824 27.136a3.3792 3.3792 0 0 0 0.4096 1.7408l10.496 19.0976a3.2768 3.2768 0 0 1-2.8672 5.12h-24.6784a3.3792 3.3792 0 0 0-1.3824 0.3072l-21.9136 10.24a3.2768 3.2768 0 0 1-4.7104-3.1744l1.4336-24.3712a3.84 3.84 0 0 0-0.3584-1.6896L747.52 324.864a3.328 3.328 0 0 1 3.0208-4.8128z" fill="#B28AE4" p-id="2036"></path><path d="M760.6272 386.7648a13.6192 13.6192 0 0 1-13.5168-14.3872l1.3312-22.528-10.24-20.48a13.568 13.568 0 0 1 12.8-19.6096l22.4768 1.1776 20.1216-10.5472a13.4144 13.4144 0 0 1 13.568 0.5632 13.6704 13.6704 0 0 1 6.2976 12.0832l-1.28 25.1904 9.5232 17.3568a13.5168 13.5168 0 0 1-11.776 20.0704h-23.1424l-20.48 9.6256a13.6704 13.6704 0 0 1-5.6832 1.4848z m27.8528-11.6224z m-26.4704-44.2368l5.7344 11.4688a13.2608 13.2608 0 0 1 1.3824 6.8608l-0.7168 12.7488 11.3664-5.12a13.7216 13.7216 0 0 1 5.6832-1.28h13.0048l-4.864-9.216a13.9776 13.9776 0 0 1-1.6896-7.2704l0.768-14.9504-11.1104 5.8368a13.4144 13.4144 0 0 1-7.0144 1.536zM748.544 348.16z m63.6928-7.8848z m-62.208-9.8304z m21.8624-18.432z m3.584-0.768z" fill="#231815" p-id="2037"></path><path d="M406.0672 186.0096a31.2832 23.4496 0 1 0 62.5664 0 31.2832 23.4496 0 1 0-62.5664 0Z" fill="#FFFFFF" p-id="2038"></path><path d="M518.7584 186.0096a31.2832 23.4496 0 1 0 62.5664 0 31.2832 23.4496 0 1 0-62.5664 0Z" fill="#FFFFFF" p-id="2039"></path><path d="M434.0224 151.1424a21.6576 11.7248 90 1 0 23.4496 0 21.6576 11.7248 90 1 0-23.4496 0Z" p-id="2040"></path><path d="M530.4832 151.1424a21.6576 11.7248 90 1 0 23.4496 0 21.6576 11.7248 90 1 0-23.4496 0Z" p-id="2041"></path><path d="M493.9776 190.8224a29.7472 29.7472 0 0 1-24.9856-13.6192 8.1408 8.1408 0 0 1 13.6704-8.8576 13.4144 13.4144 0 0 0 22.6304 0 8.1408 8.1408 0 1 1 13.6192 8.8576 29.6448 29.6448 0 0 1-24.9344 13.6192z" p-id="2042"></path></svg>