<?xml version="1.0" standalone="no"?><!DOCTYPE svg PUBLIC "-//W3C//DTD SVG 1.1//EN" "http://www.w3.org/Graphics/SVG/1.1/DTD/svg11.dtd"><svg t="1743843990894" class="icon" viewBox="0 0 1024 1024" version="1.1" xmlns="http://www.w3.org/2000/svg" p-id="2254" xmlns:xlink="http://www.w3.org/1999/xlink" width="32" height="32"><path d="M744.8064 378.7264m25.5488 0l95.232 0q25.5488 0 25.5488 25.5488l0 95.232q0 25.5488-25.5488 25.5488l-95.232 0q-25.5488 0-25.5488-25.5488l0-95.232q0-25.5488 25.5488-25.5488Z" fill="#E8B5B2" p-id="2255"></path><path d="M804.608 407.296c12.032-5.4272 15.104-17.5616 15.0528-28.5696h-47.5136a27.3408 27.3408 0 0 0-27.3408 27.3408v91.648a27.3408 27.3408 0 0 0 27.3408 27.3408h44.8512c3.1232-15.9232-18.7904-40.0896-28.2112-52.48-12.4416-16.4352-9.1136-54.0672 15.8208-65.28z" fill="#D69896" p-id="2256"></path><path d="M865.5872 535.296h-95.232a35.84 35.84 0 0 1-35.84-35.84V404.48a35.84 35.84 0 0 1 35.84-35.84h95.232a35.84 35.84 0 0 1 35.84 35.84v95.232a35.84 35.84 0 0 1-35.84 35.584zM770.3552 389.12a15.36 15.36 0 0 0-15.36 15.36v95.232a15.36 15.36 0 0 0 15.36 15.36h95.232a15.36 15.36 0 0 0 15.36-15.36V404.48a15.36 15.36 0 0 0-15.36-15.36z" fill="#231815" p-id="2257"></path><path d="M840.8064 429.7216m-13.056 0a13.056 13.056 0 1 0 26.112 0 13.056 13.056 0 1 0-26.112 0Z" fill="#231815" p-id="2258"></path><path d="M793.4464 429.6704m-13.056 0a13.056 13.056 0 1 0 26.112 0 13.056 13.056 0 1 0-26.112 0Z" fill="#231815" p-id="2259"></path><path d="M840.8064 469.1456m-13.056 0a13.056 13.056 0 1 0 26.112 0 13.056 13.056 0 1 0-26.112 0Z" fill="#231815" p-id="2260"></path><path d="M793.4464 469.1456m-13.056 0a13.056 13.056 0 1 0 26.112 0 13.056 13.056 0 1 0-26.112 0Z" fill="#231815" p-id="2261"></path><path d="M749.3632 240.64a79.0528 79.0528 0 0 1-96.9216 16.0256 167.5264 167.5264 0 0 0-76.8-21.9136c-87.552 0-155.9552 72.1408-163.84 229.7856 42.0864-53.4528 112.64-65.9968 160.5632-65.9968 141.0048 0 247.9104 81.92 247.9104 266.24 0 179.712-127.3344 286.72-278.5792 286.72-159.232 0-316.16-123.9552-316.16-432.1792 0-305.92 161.4848-445.7984 336.5888-445.7984A345.4976 345.4976 0 0 1 732.16 115.8656a78.5408 78.5408 0 0 1 20.48 120.9344zM634.88 664.3712c0-93.2352-45.5168-123.9552-101.2224-123.9552-42.0864 0-85.2992 20.48-119.3984 76.1856 17.0496 141.056 69.376 183.0912 122.88 183.0912S634.88 759.9104 634.88 664.3712z" fill="#9EA2E3" p-id="2262"></path><path d="M522.5984 832.9216c10.7008-6.6048 18.8928-18.5856 24.7296-33.7408a102.4 102.4 0 0 1-10.496 0.512c-53.4528 0-105.7792-42.0352-122.88-183.0912 3.3792-5.4784 6.8608-10.5472 10.24-15.36-63.8976-5.12-87.04-72.0896-59.5456-115.6096 32.768-52.224 7.2704-116.5824-23.0912-165.1712S322.56 222.1056 414.0032 161.3824c38.4512-25.6 51.2-51.8144 52.8896-73.7792C332.4416 130.56 225.28 269.568 225.28 518.8096c0 305.6128 154.3168 430.08 312.32 432.0768-67.9936-33.8432-58.88-90.7264-15.0016-117.9648z" fill="#7F86C6" p-id="2263"></path><path d="M541.3888 961.2288a291.84 291.84 0 0 1-231.2704-110.9504 10.24 10.24 0 1 1 15.9744-12.8512 271.36 271.36 0 0 0 215.296 103.3216c158.0032 0 268.3392-113.664 268.3392-276.48s-86.6304-256-237.6704-256C540.928 408.5248 463.6672 414.72 419.84 470.6304a10.24 10.24 0 0 1-11.6736 3.2256 10.24 10.24 0 0 1-6.6048-10.24c3.1744-62.6176 15.8208-114.432 37.5808-154.0608a10.24 10.24 0 0 1 17.92 9.8304c-16.896 30.72-27.9552 70.144-32.8704 116.992 49.92-43.3152 118.3232-48.4864 148.1216-48.4864 161.6384 0 258.1504 103.3216 258.1504 276.48 0 88.32-29.5936 163.84-85.7088 218.0608-52.6848 50.7904-124.8256 78.7968-203.3664 78.7968z m-4.5568-151.296c-50.0736 0-113.8176-33.28-133.12-192.1024a10.496 10.496 0 0 1 1.4336-6.5536c40.96-67.0208 92.16-81.1008 128-81.1008 96.9728 0 111.4624 84.0704 111.4624 134.1952 0.512 135.0656-82.432 145.5616-107.776 145.5616z m-112.2304-190.976c9.984 78.6432 37.632 170.496 112.2304 170.496 55.6544 0 87.552-45.568 87.552-125.0816 0-75.4176-30.72-113.7152-90.9824-113.7152-43.52 0-80.128 22.784-108.8 68.3008z m-158.1056 146.8928a10.24 10.24 0 0 1-9.472-6.2976c-27.904-66.8672-42.0352-147.8656-42.0352-240.64 0-144.384 36.3008-263.424 105.0624-344.2176a312.6784 312.6784 0 0 1 241.7664-111.8208 355.7376 355.7376 0 0 1 175.4624 44.032 88.7808 88.7808 0 0 1 23.04 136.704l-3.2768 3.6352a89.1904 89.1904 0 0 1-109.4144 18.176 157.44 157.44 0 0 0-72.0896-20.48 131.1232 131.1232 0 0 0-47.5136 8.6016 10.24 10.24 0 1 1-7.3728-19.0976 150.9888 150.9888 0 0 1 54.8864-10.24c32.256 0 62.3104 12.5952 81.92 23.1424a68.7616 68.7616 0 0 0 84.3776-13.824l3.2768-3.6352a68.2496 68.2496 0 0 0-17.7152-105.1136 335.5136 335.5136 0 0 0-165.4784-41.5744C411.2896 83.2512 235.52 197.3248 235.52 518.8096c0 90.1632 13.6192 168.4992 40.448 232.8576a10.24 10.24 0 0 1-5.4784 13.4144 11.008 11.008 0 0 1-3.9936 0.768z" fill="#231815" p-id="2264"></path><path d="M520.5504 724.224c-8.448-35.2768-53.3504-129.8432-124.2624-178.1248-23.5008-15.36-51.2 3.2768-62.8736 17.0496s-51.2 28.3136-81.92 23.0912-48.64-6.656-68.608 22.3744-48.8448 115.8144-16.896 205.4656c16.8448 43.52 56.6272 56.32 80.384 19.5584s43.52-80.1792 88.9856-92.5184 106.1376 16.7936 131.328 30.2592 66.7136 6.3488 53.8624-47.1552z" fill="#FF8E9E" p-id="2265"></path><path d="M256.4096 625.2032a85.2992 85.2992 0 0 0 27.392-39.6288 97.28 97.28 0 0 1-32.3584 0.6656c-30.72-5.12-48.64-6.656-68.608 22.3744s-48.7936 115.8144-16.8448 205.4656c16.8448 43.52 56.6272 56.32 80.384 19.5584 15.0528-23.296 28.4672-49.1008 47.7696-68.096-60.0064-25.9584-75.52-110.1824-37.7344-140.3392z" fill="#E26F85" p-id="2266"></path><path d="M212.6848 865.28a45.2096 45.2096 0 0 1-4.5568 0c-21.7088-2.2528-40.96-19.968-51.712-47.4624a260.5568 260.5568 0 0 1-14.8992-92.928 10.24 10.24 0 0 1 20.48 0.3584 240.0768 240.0768 0 0 0 13.6192 85.4528c7.5776 19.6096 20.8896 32.768 34.56 34.2016s22.2208-8.3968 27.5968-16.7936c3.584-5.5296 7.0656-11.2128 10.5472-16.896 20.48-33.6384 41.8816-68.4032 84.3776-79.9232 44.1344-11.9808 99.84 10.24 138.8032 31.0784 9.9328 5.12 24.576 7.1168 33.4336 0.256 9.984-7.68 8.6016-23.808 5.6832-35.84-8.8576-36.608-54.3232-127.4368-120.1152-172.2368-19.0464-12.2368-42.0864 6.912-49.3568 15.36-14.6432 16.9472-57.7536 32.2048-91.392 26.4704-29.2864-5.12-41.8304-6.0928-58.4704 18.1248a137.6768 137.6768 0 0 0-14.3872 29.4912 10.24 10.24 0 1 1-19.2-7.1168 160.512 160.512 0 0 1 16.6912-33.9968c22.9888-33.4336 46.08-32.256 78.7968-26.6752 26.6752 4.5568 62.9248-8.6528 72.448-19.6608 15.36-17.6128 47.9744-37.1712 76.1856-18.9952 71.68 48.64 119.04 144.0768 128.7168 184.32 8.2432 34.3552-4.6592 50.432-13.056 56.8832-16.5376 12.8-39.8848 10.24-55.6544 1.6384-29.184-15.36-84.1216-40.1408-123.8016-29.3888-34.6112 9.4208-52.8896 39.2704-72.2432 70.8608-3.584 5.8368-7.1168 11.6736-10.8032 17.3056-11.008 17.1008-25.9072 26.112-42.2912 26.112z" fill="#231815" p-id="2267"></path><path d="M249.6 678.144m-39.936 0a39.936 39.936 0 1 0 79.872 0 39.936 39.936 0 1 0-79.872 0Z" fill="#FFCE71" p-id="2268"></path><path d="M245.76 717.8752c-12.8-27.136-13.568-58.3168-1.1264-79.3088a44.3904 44.3904 0 0 0-5.6832 1.0752A39.8848 39.8848 0 0 0 245.76 717.8752z" fill="#E8AF54" p-id="2269"></path><path d="M249.5488 728.32a50.0224 50.0224 0 1 1 13.2096-1.7408 50.8928 50.8928 0 0 1-13.2096 1.7408z m0-79.872a29.6448 29.6448 0 1 0 28.672 21.9136 29.7984 29.7984 0 0 0-28.6208-21.9136z" fill="#231815" p-id="2270"></path><path d="M347.2896 625.2032m-13.056 0a13.056 13.056 0 1 0 26.112 0 13.056 13.056 0 1 0-26.112 0Z" fill="#231815" p-id="2271"></path><path d="M384.4608 599.552m-13.056 0a13.056 13.056 0 1 0 26.112 0 13.056 13.056 0 1 0-26.112 0Z" fill="#231815" p-id="2272"></path><path d="M374.272 661.504m-13.056 0a13.056 13.056 0 1 0 26.112 0 13.056 13.056 0 1 0-26.112 0Z" fill="#231815" p-id="2273"></path><path d="M411.392 635.8528m-13.056 0a13.056 13.056 0 1 0 26.112 0 13.056 13.056 0 1 0-26.112 0Z" fill="#231815" p-id="2274"></path><path d="M506.88 477.8496a2.6624 2.6624 0 0 0-3.6864 0L496.64 485.2224a2.6112 2.6112 0 0 0 1.8944 4.352 2.6624 2.6624 0 0 0 1.8944-0.8192L506.88 481.536a2.6624 2.6624 0 0 0 0-3.6864zM515.0208 478.5152a2.56 2.56 0 0 0-3.6352 0L501.76 489.472a2.6624 2.6624 0 0 0 0 3.6864 2.816 2.816 0 0 0 1.7408 0.6656 2.6624 2.6624 0 0 0 1.9456-0.8704l9.728-10.8032a2.56 2.56 0 0 0-0.1536-3.6352zM522.24 480.3072a2.6112 2.6112 0 0 0-3.6352 0l-9.2672 10.5472a2.6112 2.6112 0 0 0 0 3.6352 2.3552 2.3552 0 0 0 1.6896 0.6656 2.6624 2.6624 0 0 0 1.9456-0.8704l9.2672-10.2912a2.6624 2.6624 0 0 0 0-3.6864zM529.0496 481.28a2.6112 2.6112 0 0 0-3.6352 0.3072l-6.5024 7.8848a2.56 2.56 0 1 0 3.9424 3.2768l6.5536-7.8336a2.56 2.56 0 0 0-0.3584-3.6352z" fill="#FF8E9E" p-id="2275"></path><path d="M521.5744 448.6656s-8.2432-15.36-21.7088-6.5536C487.3728 450.56 500.6336 471.04 517.12 481.8944a5.9392 5.9392 0 0 0 6.8608-0.3072c17.92-14.08 27.5968-29.696 18.6368-37.2736-13.2608-11.0592-21.0432 4.352-21.0432 4.352z" fill="#EA5C70" p-id="2276"></path><path d="M514.5088 451.6864v-0.8704a6.656 6.656 0 1 0-6.656 6.656h1.28a4.2496 4.2496 0 1 0 5.12-5.6832z" fill="#FFFFFF" p-id="2277"></path><path d="M648.3456 477.8496a2.56 2.56 0 0 0-3.6352 0l-6.7584 7.2704a2.56 2.56 0 0 0 0 3.6352 2.6112 2.6112 0 0 0 1.7408 0.7168 2.6624 2.6624 0 0 0 1.8944-0.8192l6.8096-7.2192a2.6112 2.6112 0 0 0-0.0512-3.584zM656.5888 478.5152a2.6112 2.6112 0 0 0-3.6864 0l-9.728 10.752a2.6112 2.6112 0 0 0 1.8944 4.352 2.6624 2.6624 0 0 0 1.9456-0.8704l9.728-10.8032a2.56 2.56 0 0 0-0.1536-3.4304zM663.6544 480.3072a2.6624 2.6624 0 0 0-3.6864 0l-9.2672 10.5472a2.6112 2.6112 0 0 0 0 3.6352 2.4576 2.4576 0 0 0 1.6896 0.6656 2.6624 2.6624 0 0 0 1.9456-0.8704l9.2672-10.5472a2.6112 2.6112 0 0 0 0.0512-3.4304zM670.72 481.28a2.56 2.56 0 0 0-3.6352 0.3072L660.48 489.5744a2.6112 2.6112 0 0 0 0.3072 3.6352 2.6624 2.6624 0 0 0 1.6896 0.6144 2.6624 2.6624 0 0 0 1.9968-0.9728l6.2464-7.8336a2.6112 2.6112 0 0 0 0-3.7376z" fill="#FF8E9E" p-id="2278"></path><path d="M663.0912 448.6656s-8.2432-15.36-21.6576-6.5536c-12.544 8.3456 0.7168 28.8768 17.1008 39.7824a5.9392 5.9392 0 0 0 6.8608-0.3072c17.8688-14.08 27.5456-29.696 18.5856-37.2736-13.2608-11.0592-20.8896 4.352-20.8896 4.352z" fill="#EA5C70" p-id="2279"></path><path d="M656.0256 451.6864a4.5056 4.5056 0 0 0 0-0.8704 6.656 6.656 0 1 0-6.656 6.656h1.28a4.1984 4.1984 0 1 0 5.12-5.6832z" fill="#FFFFFF" p-id="2280"></path><path d="M617.216 482.2528H560.128a3.6352 3.6352 0 0 0-3.6352 3.6352v7.0144a32.1536 32.1536 0 0 0 32.1536 32.1536 32.1536 32.1536 0 0 0 32.1536-32.1536V485.888a3.6352 3.6352 0 0 0-3.584-3.6352z" p-id="2281"></path><path d="M588.8 496.64a22.5792 22.5792 0 0 0-22.3232 19.2 32.1024 32.1024 0 0 0 44.6976 0A22.6304 22.6304 0 0 0 588.8 496.64z" fill="#EA5C70" p-id="2282"></path></svg>