<?xml version="1.0" standalone="no"?><!DOCTYPE svg PUBLIC "-//W3C//DTD SVG 1.1//EN" "http://www.w3.org/Graphics/SVG/1.1/DTD/svg11.dtd"><svg t="1743844005194" class="icon" viewBox="0 0 1024 1024" version="1.1" xmlns="http://www.w3.org/2000/svg" p-id="2777" xmlns:xlink="http://www.w3.org/1999/xlink" width="32" height="32"><path d="M702.9248 771.8912m-146.9952 0a146.9952 146.9952 0 1 0 293.9904 0 146.9952 146.9952 0 1 0-293.9904 0Z" fill="#54DAFE" p-id="2778"></path><path d="M745.3184 631.1424a146.9952 146.9952 0 1 0-42.3936 287.744h5.12c-56.9344-40.96-30.72-96.7168-21.248-119.6032 19.3536-46.6432-48.6912-69.5296-36.9664-114.8928 7.2704-29.0304 59.1872-45.3632 95.488-53.248z" fill="#45BFDB" p-id="2779"></path><path d="M702.9248 663.9616l31.744-32.768h-63.488l31.744 32.768zM824.2176 698.3168l-19.0464 41.4208 41.984 17.7664-22.9376-59.1872zM762.8288 906.9056l50.3296-38.7072-45.1072-6.6048-5.2224 45.312z" fill="#FFCE71" p-id="2780"></path><path d="M596.5824 871.8336l53.4528 34.3552-9.0112-44.6976-44.4416 10.3424zM571.3408 709.1712l-9.6768 62.72 37.2224-26.368-27.5456-36.352z" fill="#E8AF54" p-id="2781"></path><path d="M702.8224 929.0752a157.184 157.184 0 1 1 155.1872-131.2768 10.24 10.24 0 1 1-20.1728-3.328 136.8064 136.8064 0 1 0-33.3824 69.0688 140.288 140.288 0 0 0 14.3872-18.9952 10.24 10.24 0 1 1 17.3056 10.9056 154.6752 154.6752 0 0 1-16.5376 21.8112 156.7232 156.7232 0 0 1-116.7872 51.8144z" fill="#231815" p-id="2782"></path><path d="M692.736 704.256l-52.0192 37.8368a17.3056 17.3056 0 0 0-6.2976 19.3536l19.8656 61.184A17.3056 17.3056 0 0 0 670.72 834.56h64.3072a17.3568 17.3568 0 0 0 16.4864-11.9296l19.8656-61.184a17.3056 17.3056 0 0 0-6.2976-19.3536l-52.0192-37.8368a17.3568 17.3568 0 0 0-20.3264 0z" fill="#FF8E9E" p-id="2783"></path><path d="M660.736 727.552l-19.3536 14.0288a18.5344 18.5344 0 0 0-6.7072 20.48l19.3536 59.5968a18.432 18.432 0 0 0 17.5616 12.7488h2.8672a195.3792 195.3792 0 0 1 12.0832-35.3792c12.2368-29.3376-10.4448-49.3056-25.8048-71.4752z" fill="#E26F85" p-id="2784"></path><path d="M735.0784 844.8H670.72a27.4432 27.4432 0 0 1-26.2144-19.0464L624.64 764.6208a27.4944 27.4944 0 0 1 9.984-30.72l52.0704-37.7856a27.3408 27.3408 0 0 1 32.3584 0l52.0704 37.7856a27.4944 27.4944 0 0 1 9.984 30.72l-19.8656 61.1328a27.4432 27.4432 0 0 1-26.1632 19.0464z m-32.1536-133.5808a7.1168 7.1168 0 0 0-4.1472 1.3312l-52.0704 37.8368a7.1168 7.1168 0 0 0-2.56 7.8848l19.8656 61.44a7.1168 7.1168 0 0 0 6.7072 4.608h64.3072a7.1168 7.1168 0 0 0 6.7584-4.864l19.8656-61.44a7.0656 7.0656 0 0 0-2.6112-7.8848l-52.0192-37.8368a7.2704 7.2704 0 0 0-4.096-1.0752z m-10.24-6.9632zM702.9248 674.1504a10.24 10.24 0 0 1-7.3728-3.072l-31.744-32.768a10.24 10.24 0 0 1 0-14.4384 10.24 10.24 0 0 1 14.4896 0l24.3712 25.1392 24.3712-25.1392a10.24 10.24 0 0 1 14.7456 14.2336l-31.7952 32.768a10.24 10.24 0 0 1-7.0656 3.2768z" fill="#231815" p-id="2785"></path><path d="M702.9248 709.6832a10.24 10.24 0 0 1-10.24-10.24v-36.9152a10.24 10.24 0 0 1 20.48 0v36.9152a10.24 10.24 0 0 1-10.24 10.24zM847.1552 768a10.24 10.24 0 0 1-3.9936-0.8192l-41.984-17.7664a10.24 10.24 0 0 1-5.5808-5.7344 10.5472 10.5472 0 0 1 0.256-7.9872l19.0976-41.4208a10.24 10.24 0 1 1 18.5856 8.5504l-14.6432 31.8464 32.256 13.6704a10.24 10.24 0 0 1-3.9936 19.6608z" fill="#231815" p-id="2786"></path><path d="M772.096 762.88a10.24 10.24 0 0 1-3.7376-19.8144l34.4064-13.312a10.24 10.24 0 0 1 7.424 19.0976l-34.4064 13.312a10.24 10.24 0 0 1-3.6864 0.7168zM762.88 917.1456h-1.1776a10.24 10.24 0 0 1-9.0624-11.4176l5.12-45.312a10.24 10.24 0 0 1 11.6736-8.96l45.1072 6.6048a10.24 10.24 0 1 1-2.9696 20.48l-34.6624-5.12-4.0448 34.7648a10.24 10.24 0 0 1-9.984 8.96z" fill="#231815" p-id="2787"></path><path d="M768.9216 872.96a10.24 10.24 0 0 1-8.1408-4.0448L738.304 839.68a10.24 10.24 0 0 1 16.2304-12.4416l22.4768 29.2352a10.24 10.24 0 0 1-8.0896 16.4864zM650.24 916.48a10.24 10.24 0 0 1-10.24-8.2432l-6.9632-34.304-33.9968 7.8848a10.24 10.24 0 1 1-4.6592-19.9168l44.3904-10.24a10.24 10.24 0 0 1 12.3904 7.936l9.0112 44.6976a10.24 10.24 0 0 1-8.0384 12.0832 9.2672 9.2672 0 0 1-1.8944 0.1024z" fill="#231815" p-id="2788"></path><path d="M640.256 872.9088a9.9328 9.9328 0 0 1-5.5296-1.6384 10.24 10.24 0 0 1-3.072-14.1312l19.9168-31.0272a10.24 10.24 0 0 1 17.2544 11.0592l-19.968 31.0272a10.24 10.24 0 0 1-8.6016 4.7104zM561.664 782.1312a10.24 10.24 0 0 1-5.888-18.5856l28.5696-20.48-21.1456-27.7504a10.24 10.24 0 1 1 16.3328-12.3392l27.4944 36.352a10.24 10.24 0 0 1-2.2528 14.5408l-37.1712 26.368a10.24 10.24 0 0 1-5.9392 1.8944z" fill="#231815" p-id="2789"></path><path d="M633.9584 761.1904a8.3456 8.3456 0 0 1-1.5872 0l-36.4544-5.632a10.24 10.24 0 0 1 3.1232-20.224l36.4544 5.632a10.24 10.24 0 0 1-1.536 20.48z" fill="#231815" p-id="2790"></path><path d="M565.504 261.8368H286.1056a84.0192 84.0192 0 0 1-84.0192-84.0192 84.0704 84.0704 0 0 1 84.0192-84.0704H691.2A90.3168 90.3168 0 0 1 781.312 184.32a90.9312 90.9312 0 0 1-20.224 56.9856c-158.2592 196.9664-190.3616 345.2928-205.568 603.392A100.2496 100.2496 0 0 1 455.68 938.8032a100.2496 100.2496 0 0 1-99.6864-110.08c21.504-218.3168 72.4992-376.9856 209.5104-566.8864z" fill="#FF8F71" p-id="2791"></path><path d="M430.5408 935.5264c-25.6-30.2592-21.504-67.4816-5.9904-82.944 24.2688-24.2688 93.9008-76.8 56.9856-178.432-49.7152-136.9088 18.7904-166.0416 57.6-241.2544 19.456-37.6832-20.48-60.5184-29.6448-87.3984-95.5904 155.1872-135.2192 297.6768-153.6 483.2256a100.1984 100.1984 0 0 0 74.6496 106.8032zM413.6448 153.9584c0.4096-23.3984 21.0944-43.776 46.8992-60.2112H286.1056a84.0704 84.0704 0 0 0 0 168.0896h233.7792C502.4256 235.52 412.672 203.3152 413.6448 153.9584z" fill="#EA745C" p-id="2792"></path><path d="M455.68 949.0432a110.4384 110.4384 0 0 1-109.8752-121.344c1.792-18.0224 3.7888-35.84 5.9392-52.3776a10.24 10.24 0 0 1 20.48 2.56c-2.1504 16.5376-4.096 33.9968-5.888 51.8656a89.9584 89.9584 0 1 0 179.2 14.08c9.3696-159.5904 25.6-282.112 76.8-399.36a10.24 10.24 0 0 1 18.7392 8.192c-49.9712 114.688-65.792 235.52-75.0592 392.6528A110.592 110.592 0 0 1 455.68 949.0432zM377.1904 691.2a8.8064 8.8064 0 0 1-1.9968 0 10.24 10.24 0 0 1-8.0384-12.032c29.7472-148.9408 83.456-271.7184 178.4832-406.9888H286.1056a94.3104 94.3104 0 0 1 0-188.5696H691.2a100.5568 100.5568 0 0 1 78.08 163.84A1100.1344 1100.1344 0 0 0 696.32 348.16a10.24 10.24 0 0 1-17.3056-10.9568 1116.672 1116.672 0 0 1 73.984-102.4A80.9984 80.9984 0 0 0 771.072 184.32 80.1792 80.1792 0 0 0 691.2 103.9872H286.1056a73.8304 73.8304 0 0 0 0 147.6096h279.3984a10.24 10.24 0 0 1 8.3456 16.2304c-100.5056 139.264-156.3136 263.424-186.624 415.232a10.24 10.24 0 0 1-10.0352 8.1408z" fill="#231815" p-id="2793"></path><path d="M425.7792 186.88a30.5664 22.8864 0 1 0 61.1328 0 30.5664 22.8864 0 1 0-61.1328 0Z" fill="#FFFFFF" p-id="2794"></path><path d="M535.9616 186.88a30.5664 22.8864 0 1 0 61.1328 0 30.5664 22.8864 0 1 0-61.1328 0Z" fill="#FFFFFF" p-id="2795"></path><path d="M619.0592 145.6128a7.3216 7.3216 0 0 0-8.7552-5.5296c-19.968 4.5056-47.0016 0-47.2576 0a7.3216 7.3216 0 1 0-2.5088 14.4384c0.4608 0 4.608 0.768 10.8032 1.3824a17.7664 17.7664 0 0 0-1.024 5.7344 18.688 18.688 0 1 0 37.376 0 19.4048 19.4048 0 0 0-1.0752-5.9904q3.5328-0.4608 6.912-1.2288a7.3216 7.3216 0 0 0 5.5296-8.8064zM446.1056 144.384c1.6896-1.4848 3.3792-3.072 5.12-4.864a7.3216 7.3216 0 0 0-10.6496-10.24c-14.592 15.36-28.9792 14.592-29.7472 14.5408A7.3216 7.3216 0 1 0 409.6 158.72a12.1856 12.1856 0 0 0 2.0992 0 44.4928 44.4928 0 0 0 6.4512-0.512 13.2096 13.2096 0 0 0 0 2.048 18.688 18.688 0 1 0 28.416-15.8208zM529.3056 209.92a7.2192 7.2192 0 0 0-10.24 1.8432 9.1136 9.1136 0 0 1-6.144 1.792 7.2704 7.2704 0 0 1-5.6832-3.328 8.4992 8.4992 0 0 1 1.28-10.5472 7.0656 7.0656 0 0 0 2.048-5.376 7.3216 7.3216 0 0 0-2.4576-5.12c-0.3072-0.3072-8.0896-7.3216-3.9936-12.3904s11.8272-1.024 13.2608 0a7.3216 7.3216 0 0 0 8.704-11.8272c-7.8848-5.8368-23.296-9.9328-33.3824 2.6624-8.0384 10.24-3.9936 20.48 1.2288 27.6992a22.6304 22.6304 0 0 0 19.6608 33.4336 22.3232 22.3232 0 0 0 17.3568-8.0384 7.4752 7.4752 0 0 0-1.6384-10.8032z" p-id="2796"></path><path d="M229.9392 411.136l-52.0192 37.7344a15.872 15.872 0 0 0-5.7344 17.664l19.8656 61.1328a15.8208 15.8208 0 0 0 15.0528 10.9056H271.36a15.8208 15.8208 0 0 0 15.0528-10.9056l3.6864-11.3664 5.5296-17.0496 8.9088-27.4432 1.7408-5.12a15.872 15.872 0 0 0-5.7344-17.664l-52.0704-37.888a15.6672 15.6672 0 0 0-18.5344 0z" fill="#FFCE71" p-id="2797"></path><path d="M248.4736 411.136a15.6672 15.6672 0 0 0-18.5344 0l-52.0192 37.7344a15.872 15.872 0 0 0-5.7344 17.664l19.8656 61.1328a15.8208 15.8208 0 0 0 15.0528 10.9056h11.9808c-23.0912-39.9872-6.5024-78.848 20.1216-84.736 14.8992-3.2768 24.32-15.36 30.1568-27.5456z" fill="#E8AF54" p-id="2798"></path><path d="M271.36 548.8128H207.104a25.9072 25.9072 0 0 1-24.7808-17.9712l-19.8656-61.1328a26.0096 26.0096 0 0 1 9.472-29.1328l51.968-37.7344a25.9584 25.9584 0 0 1 30.72 0l51.968 37.7344a26.0096 26.0096 0 0 1 9.472 29.1328l-1.9456 5.9392a10.24 10.24 0 1 1-19.456-6.3488l1.9456-5.9392a5.632 5.632 0 0 0-2.048-6.1952l-52.0704-37.7856a5.6832 5.6832 0 0 0-6.5536 0l-51.968 37.7856a5.632 5.632 0 0 0-2.048 6.1952l19.8656 61.1328a5.5808 5.5808 0 0 0 5.12 3.84H271.36a5.5808 5.5808 0 0 0 5.12-3.84l1.7408-5.4272a10.24 10.24 0 0 1 19.5072 6.3488l-1.792 5.4272a25.9072 25.9072 0 0 1-24.576 17.9712z" fill="#231815" p-id="2799"></path></svg>