<?xml version="1.0" standalone="no"?><!DOCTYPE svg PUBLIC "-//W3C//DTD SVG 1.1//EN" "http://www.w3.org/Graphics/SVG/1.1/DTD/svg11.dtd"><svg t="1743844010896" class="icon" viewBox="0 0 1024 1024" version="1.1" xmlns="http://www.w3.org/2000/svg" p-id="2951" xmlns:xlink="http://www.w3.org/1999/xlink" width="32" height="32"><path d="M553.5744 75.3664H470.3744a232.0896 232.0896 0 0 0-232.0896 232.0896V384h112.64V323.2256a132.096 132.096 0 0 1 132.096-132.096h76.3392a132.096 132.096 0 0 1 132.096 132.096V384h94.1056V307.2a232.0896 232.0896 0 0 0-231.9872-231.8336z" fill="#E8B5B2" p-id="2952"></path><path d="M486.4 103.3728a294.5024 294.5024 0 0 0 101.2736-25.6 237.7216 237.7216 0 0 0-33.8432-2.4576h-83.456A232.0896 232.0896 0 0 0 238.5408 296.96c49.8688-12.544 104.96-32.7168 149.5552-65.1264a129.024 129.024 0 0 1 10.9568-10.24C368.64 178.688 400.9472 107.52 486.4 103.3728z" fill="#D69896" p-id="2953"></path><path d="M785.7152 394.24h-94.1056a10.24 10.24 0 0 1-10.24-10.24v-34.816a147.968 147.968 0 0 0-147.8656-147.8144h-24.32A148.0192 148.0192 0 0 0 361.3184 349.184V384a10.24 10.24 0 0 1-10.24 10.24h-112.64a10.24 10.24 0 0 1-10.24-10.24V307.2a242.5856 242.5856 0 0 1 242.2272-242.0736h83.2a240.64 240.64 0 0 1 99.4304 21.248 10.24 10.24 0 0 1-8.448 18.688 220.16 220.16 0 0 0-90.9824-19.456H470.4256a222.1056 222.1056 0 0 0-221.9008 221.8496V373.76h92.16v-24.576a168.5504 168.5504 0 0 1 168.4992-168.2944h24.32a168.5504 168.5504 0 0 1 168.3456 168.2944V373.76h73.6256V307.2a220.4672 220.4672 0 0 0-64.9728-156.8768 10.24 10.24 0 1 1 14.4896-14.4896A240.64 240.64 0 0 1 795.9552 307.2v76.8a10.24 10.24 0 0 1-10.24 10.24z" fill="#231815" p-id="2954"></path><path d="M282.5728 234.5472h84.6848v218.8288H282.5728a109.4144 109.4144 0 0 1-109.4144-109.4144 109.4144 109.4144 0 0 1 109.4144-109.4144z" fill="#FFCE71" p-id="2955"></path><path d="M254.464 449.5872c-40.96-46.6944-43.264-98.2016-39.0144-134.8096 3.4304-29.6448 28.2112-59.4432 47.2064-78.336a109.4656 109.4656 0 0 0-89.4976 107.52A109.4144 109.4144 0 0 0 254.464 449.5872z" fill="#E8AF54" p-id="2956"></path><path d="M740.4032 453.376h-84.7872V234.5472h84.7872a109.4144 109.4144 0 0 1 109.4144 109.4144 109.4144 109.4144 0 0 1-109.4144 109.4144z" fill="#FFCE71" p-id="2957"></path><path d="M788.1216 442.2656c-22.7328-26.6752-11.6736-74.5984-2.4064-114.432 10.752-46.08-31.3344-77.3632-60.7744-93.2864H670.72L657.5616 240.64s-0.6656 4.352-1.8432 11.8272v200.9088h84.6848a108.1344 108.1344 0 0 0 47.7184-11.1104z" fill="#E8AF54" p-id="2958"></path><path d="M367.2576 463.616H282.5728a118.9888 118.9888 0 0 1-66.8672-20.48 10.24 10.24 0 0 1 11.4176-16.9984 98.56 98.56 0 0 0 55.4496 16.9472h74.4448V244.7872H282.5728a99.1744 99.1744 0 0 0-87.04 146.432 10.24 10.24 0 0 1-17.9712 9.7792 119.6032 119.6032 0 0 1 105.0112-176.6912h84.6848a10.24 10.24 0 0 1 10.24 10.24v218.8288a10.24 10.24 0 0 1-10.24 10.24zM740.4032 463.616h-84.6848a10.24 10.24 0 0 1-10.24-10.24V234.5472a10.24 10.24 0 0 1 10.24-10.24h84.6848a119.6544 119.6544 0 0 1 0 239.3088z m-74.4448-20.48h74.4448a99.1744 99.1744 0 0 0 0-198.3488h-74.4448z" fill="#231815" p-id="2959"></path><path d="M238.2848 751.7184c0-98.816 56.32-160.512 129.6896-199.68v-5.12C306.3296 500.8896 264.8576 440.32 264.8576 356.3008c0-131.7888 104.192-213.6576 250.88-213.6576 142.4384 0 237.0048 82.944 237.0048 211.5584 0 75.4688-45.6704 138.24-99.8912 175.36v5.12c75.4688 39.3216 133.12 105.216 133.12 213.6576 0 122.2656-110.5408 214.7328-276.48 214.7328-155.3408 0.2048-271.2064-85.9136-271.2064-211.3536z m372.0192-10.5984c0-62.0544-48.8448-92.16-128.8192-128a41.3696 41.3696 0 0 0-51.2 15.36 185.6 185.6 0 0 0-30.3104 100.9152c0 64.8704 52.0704 102.0416 113.7152 102.0416 54.1184 0 96.6144-27.5968 96.6144-90.3168z m-10.5984-374.1696c0-57.3952-32.9728-93.5424-89.2928-93.5424-42.5472 0-79.7184 26.5728-79.7184 82.8928 0 53.4528 35.4816 86.0672 94.0032 113.6128a40.96 40.96 0 0 0 53.4016-17.0496 178.3296 178.3296 0 0 0 21.6064-85.9136z" fill="#7F88BA" p-id="2960"></path><path d="M562.432 959.8464c-63.0272-18.944-73.5744-73.0624-50.432-128.4096-60.928-0.6656-112.128-37.7344-112.128-102.0416a185.6 185.6 0 0 1 30.208-100.9152 41.3696 41.3696 0 0 1 51.2-15.36c69.2736 30.72 115.0976 57.7024 126.1568 104.6016 56.9344-68.608-54.016-139.9808-112.64-170.1888-51.2-26.5216-72.96-87.04-53.9136-145.664a97.28 97.28 0 0 1-10.6496-45.6192c0-36.608 15.7696-60.6208 38.4512-72.96A146.2784 146.2784 0 0 1 440.32 236.1344C427.9296 199.68 462.1312 165.1712 491.9296 143.36c-133.9904 8.4992-227.072 88.3712-227.072 212.9408 0 83.968 41.472 144.5888 103.1168 190.2592v5.12c-73.3696 39.3216-129.6896 101.0176-129.6896 199.68 0 125.44 115.8656 211.5584 271.0528 211.5584a411.8528 411.8528 0 0 0 53.0944-3.072z" fill="#5C6791" p-id="2961"></path><path d="M509.3376 973.5168c-162.9696 0-281.2928-93.2864-281.2928-221.7984a242.2784 242.2784 0 0 1 5.4784-52.0704 10.24 10.24 0 0 1 20.0192 4.4544 220.16 220.16 0 0 0-5.12 47.616c0 116.6336 109.6704 201.3184 260.8128 201.3184 156.7232 0 266.24-84.1216 266.24-204.4928 0-91.6992-42.8544-160.512-127.3856-204.8a10.24 10.24 0 0 1-5.4784-9.0624v-5.12a10.24 10.24 0 0 1 4.4544-8.448 237.7728 237.7728 0 0 0 62.5664-62.8224 10.24 10.24 0 0 1 17.0496 11.4176 258.304 258.304 0 0 1-58.8288 61.696c85.0432 47.9744 128 120.9856 128 217.1392 0 63.0784-28.3648 120.32-79.872 161.2288-52.4288 41.6768-123.904 63.744-206.6432 63.744z m4.2496-131.84c-73.0112 0-123.9552-46.08-123.9552-112.2816a195.9424 195.9424 0 0 1 32-106.5472 51.5072 51.5072 0 0 1 64-19.0464c73.8304 32.8192 134.912 65.792 134.912 137.3184 0 62.976-39.9872 100.5568-106.9568 100.5568z m-48.7424-221.7984a31.3344 31.3344 0 0 0-26.112 14.2336 175.1552 175.1552 0 0 0-28.6208 95.2832c0 63.0784 53.6576 91.8016 103.4752 91.8016 78.08 0 86.4768-56.0128 86.4768-80.0768 0-54.1184-41.3184-82.3808-122.88-118.5792a30.72 30.72 0 0 0-12.3392-2.6624z m-175.8208 2.9184a10.24 10.24 0 0 1-6.7584-2.56 10.24 10.24 0 0 1-0.9216-14.4384A282.9312 282.9312 0 0 1 353.28 548.3008C287.8464 496.64 254.6176 432.0768 254.6176 356.3008c0-133.888 104.9088-223.8976 261.12-223.8976 72.6016 0 134.4 20.7872 178.7392 60.1088S762.88 288.256 762.88 354.2016a196.4032 196.4032 0 0 1-4.352 40.96 10.24 10.24 0 1 1-20.0192-4.3008 175.9232 175.9232 0 0 0 3.8912-36.9152c0-122.3168-88.9856-201.3184-226.7648-201.3184-70.5024 0-130.6624 19.0464-174.08 55.04s-66.56 87.6544-66.56 148.48c0 73.1136 32.3584 132.6592 98.9696 182.0672a10.24 10.24 0 0 1 4.1472 8.192v5.12a10.24 10.24 0 0 1-5.4272 9.0112A270.2336 270.2336 0 0 0 296.96 619.52a10.24 10.24 0 0 1-7.936 3.2768zM542.72 484.1472a51.968 51.968 0 0 1-22.1696-5.12c-46.4896-21.8624-99.84-55.6032-99.84-122.88 0-46.336 27.8016-93.1328 89.9584-93.1328s99.5328 39.7824 99.5328 103.7824a188.416 188.416 0 0 1-22.8352 90.7776 50.5344 50.5344 0 0 1-44.6464 26.5728zM510.4128 283.648c-33.5872 0-69.4784 19.0976-69.4784 72.6528 0 44.032 26.3168 75.264 88.1152 104.3456a30.72 30.72 0 0 0 40.0384-12.6464 168.2432 168.2432 0 0 0 20.48-81.0496c-0.1024-52.9408-28.928-83.3024-79.1552-83.3024z" fill="#231815" p-id="2962"></path><path d="M454.622546 568.334758a31.8976 23.9104 9.45 1 0 7.851546-47.171836 31.8976 23.9104 9.45 1 0-7.851546 47.171836Z" fill="#FF8E9E" p-id="2963"></path><path d="M567.897842 587.202035a31.8976 23.9104 9.45 1 0 7.851547-47.171837 31.8976 23.9104 9.45 1 0-7.851547 47.171837Z" fill="#FF8E9E" p-id="2964"></path><path d="M469.14586 532.863944a11.9296 22.0672 9.45 1 0 7.246288-43.535463 11.9296 22.0672 9.45 1 0-7.246288 43.535463Z" p-id="2965"></path><path d="M566.153666 549.074218a11.9296 22.0672 9.45 1 0 7.246288-43.535463 11.9296 22.0672 9.45 1 0-7.246288 43.535463Z" p-id="2966"></path><path d="M514.6624 559.1552a30.2592 30.2592 0 0 1-22.8352-17.92 8.2944 8.2944 0 1 1 15.36-6.6048 13.6704 13.6704 0 0 0 22.784 3.7888 8.2944 8.2944 0 1 1 12.2368 11.2128 30.2592 30.2592 0 0 1-27.5456 9.5232z" p-id="2967"></path></svg>