<?xml version="1.0" standalone="no"?><!DOCTYPE svg PUBLIC "-//W3C//DTD SVG 1.1//EN" "http://www.w3.org/Graphics/SVG/1.1/DTD/svg11.dtd"><svg t="1743844017030" class="icon" viewBox="0 0 1024 1024" version="1.1" xmlns="http://www.w3.org/2000/svg" p-id="3119" xmlns:xlink="http://www.w3.org/1999/xlink" width="32" height="32"><path d="M543.9488 814.7456a10.24 10.24 0 0 1-10.24-10.24V614.4a10.24 10.24 0 0 1 20.48 0v190.0032a10.24 10.24 0 0 1-10.24 10.3424z" fill="#231815" p-id="3120"></path><path d="M341.504 781.9776a80.896 80.896 0 0 1 98.0992-17.7664 176.2816 176.2816 0 0 0 78.7456 20.48c85.8624 0 158.1568-72.8576 159.3344-211.6608-37.6832 32.3584-109.6192 51.2-158.208 51.2-141.2608 0-246.3232-83.6096-246.3232-264.3456 0-178.5344 126.5664-284.7232 276.8384-284.7232 159.2832 0 314.0608 120.8832 314.0608 425.9328s-160.4096 446.3104-332.1856 446.3104a348.16 348.16 0 0 1-169.5232-42.0352 80.0256 80.0256 0 0 1-21.4016-122.88z m222.5152-298.9056c71.3728-3.7888 118.9376-74.9568 100.2496-143.9744-23.552-86.7328-67.072-113.4592-109.7728-113.4592-53.0944 0-98.304 37.2736-98.304 134.4512 0 90.368 45.2096 122.88 101.6832 122.88q3.072 0.256 6.144 0.1024z" fill="#E8B5B2" p-id="3121"></path><path d="M668.3136 650.752c-22.3232 88.2176-81.92 134.144-149.9648 134.144a176.2816 176.2816 0 0 1-78.7456-20.48 80.896 80.896 0 0 0-98.0992 17.7664l-0.5632 0.6656a80.0256 80.0256 0 0 0 21.4016 122.88 336.2816 336.2816 0 0 0 88.4736 33.28c-29.696-42.4448-20.48-112.64 100.4544-130.816 132.2496-20.1728 168.4992-118.016 117.0432-157.44zM273.152 360.0896c0 180.736 105.0624 264.3456 246.3232 264.3456 5.8368 0 12.032 0 18.4832-0.8192-68.9152-22.2208-92.5184-74.752-40.4992-112.128a80.6912 80.6912 0 0 0 27.7504-32.512C484.9664 467.5584 456.192 432.128 456.192 360.0896c0-69.376 23.04-108.1856 55.5008-124.5696-48.1792-79.2064 36.5056-128 102.7072-153.0368a299.3664 299.3664 0 0 0-64.4096-6.9632c-150.272-0.1536-276.8384 106.0352-276.8384 284.5696z" fill="#D69896" p-id="3122"></path><path d="M531.8656 957.8496a359.168 359.168 0 0 1-174.4384-43.264 90.3168 90.3168 0 0 1-24.1664-138.7008l0.5632-0.6144a91.136 91.136 0 0 1 110.4384-20.1728 188.0576 188.0576 0 0 0 31.5392 12.9024 10.24 10.24 0 1 1-5.9392 19.6096A211.9168 211.9168 0 0 1 435.2 773.12a70.7584 70.7584 0 0 0-85.76 15.36l-0.512 0.6144a69.8368 69.8368 0 0 0 18.5856 107.52 338.5344 338.5344 0 0 0 164.608 40.96 282.8288 282.8288 0 0 0 203.6224-84.3264 10.24 10.24 0 1 1 14.4384 14.4896 306.8416 306.8416 0 0 1-218.3168 90.112z m269.056-164.9664a10.24 10.24 0 0 1-5.12-1.28 10.24 10.24 0 0 1-3.9424-13.9776c40.96-73.4208 61.8496-166.4 61.8496-276.48 0-125.7984-26.2144-226.4064-77.9264-299.0592a10.24 10.24 0 0 1 16.6912-11.8784c54.2208 76.1856 81.92 180.8384 81.92 310.9376 0 113.4592-21.6576 209.92-64.4608 286.3616a10.24 10.24 0 0 1-9.0112 5.376z m-256.9216 0a10.24 10.24 0 0 1-1.792-20.48c71.3728-12.7488 117.76-80.4352 124.4672-178.6368-42.1888 26.5728-104.1408 40.96-147.2 40.96-160.6656 0-256.5632-102.4-256.5632-274.5856C262.912 272.3328 292.352 197.4272 348.16 143.36c52.1216-50.4832 123.8016-78.2848 201.9328-78.2848a297.3696 297.3696 0 0 1 148.48 38.7072 10.24 10.24 0 1 1-10.24 17.7152 277.2992 277.2992 0 0 0-138.24-35.84c-156.9792 0-266.5984 112.64-266.5984 274.4832S369.4592 614.4 519.4752 614.4c46.5408 0 115.968-18.2272 151.552-48.7424a10.24 10.24 0 0 1 16.896 7.8848c-1.2288 143.36-74.1888 207.2576-142.08 219.392zM558.08 493.4656c-41.7792 0-111.9232-17.3568-111.9232-133.12 0-90.624 40.5504-144.6912 108.544-144.6912 39.5776 0 92.5184 20.992 119.6544 121.0368a126.0544 126.0544 0 0 1-19.5072 107.52 118.6816 118.6816 0 0 1-90.112 49.4592c-2.4064-0.256-4.6592-0.2048-6.656-0.2048z m6.144-10.24z m-9.728-247.3472c-32.8704 0-88.064 16.128-88.064 124.2112 0 73.8304 31.6416 112.64 91.4432 112.64h5.5808a98.2528 98.2528 0 0 0 74.5472-40.96 105.728 105.728 0 0 0 16.384-90.0096C635.2896 271.36 601.7024 235.8784 554.496 235.8784z" fill="#231815" p-id="3123"></path><path d="M267.4176 717.824h-13.6192a93.8496 93.8496 0 0 1-93.8496-93.8496v-107.52h201.3184v107.52a93.8496 93.8496 0 0 1-93.8496 93.8496z" fill="#FF8E9E" p-id="3124"></path><path d="M159.9488 623.9232A93.7472 93.7472 0 0 0 241.3056 716.8c-18.7392-20.48-7.8848-36.864-4.352-43.9296 5.12-10.24 41.728-60.4672-19.6096-137.9328a105.2672 105.2672 0 0 1-11.6736-18.5344h-45.7216z" fill="#E26F85" p-id="3125"></path><path d="M267.4176 728.064h-13.6192a104.0384 104.0384 0 0 1-86.3232-46.08 10.24 10.24 0 0 1 2.7648-14.1824A10.24 10.24 0 0 1 184.32 670.72a83.5584 83.5584 0 0 0 69.3248 36.9152h13.6192a83.7632 83.7632 0 0 0 83.6096-83.6608v-97.28H170.1888v97.28a10.24 10.24 0 0 1-20.48 0v-107.52a10.24 10.24 0 0 1 10.24-10.24h201.3184a10.24 10.24 0 0 1 10.24 10.24v107.52a104.2432 104.2432 0 0 1-104.0896 104.0896z" fill="#231815" p-id="3126"></path><path d="M343.1936 516.5056h-48.7424V418.9184A22.9888 22.9888 0 0 1 317.44 395.9296h2.6112A22.9888 22.9888 0 0 1 343.04 418.9184v97.5872h0.1536zM227.072 516.5056h-48.8448V418.9184a22.9888 22.9888 0 0 1 22.9888-22.9888h2.8672a22.9888 22.9888 0 0 1 22.9888 22.9888v97.5872z" fill="#FFCE71" p-id="3127"></path><path d="M216.2688 399.36a22.9888 22.9888 0 0 0-12.1856-3.584h-2.9184a22.9888 22.9888 0 0 0-22.9888 22.9888v97.5872h27.4944C185.344 475.136 199.68 430.6432 216.2688 399.36z" fill="#E8AF54" p-id="3128"></path><path d="M343.04 526.6944h-48.7424a10.24 10.24 0 0 1-10.24-10.24V418.8672A33.28 33.28 0 0 1 317.44 385.6384h2.9184A33.3312 33.3312 0 0 1 353.28 418.8672v97.5872a10.24 10.24 0 0 1-10.24 10.24z m-38.656-20.48H332.8V418.8672a12.8 12.8 0 0 0-12.7488-12.7488H317.44a12.8 12.8 0 0 0-12.7488 12.7488zM227.072 526.6944H178.176a10.24 10.24 0 0 1-10.24-10.24V418.8672a33.28 33.28 0 0 1 33.2288-33.2288h2.9184a33.3312 33.3312 0 0 1 33.2288 33.2288v97.5872a10.24 10.24 0 0 1-10.24 10.24z m-38.656-20.48h28.416V418.8672a12.8 12.8 0 0 0-12.7488-12.7488h-2.9184a12.8 12.8 0 0 0-12.7488 12.7488z" fill="#231815" p-id="3129"></path><path d="M260.608 602.4192m-33.536 0a33.536 33.536 0 1 0 67.072 0 33.536 33.536 0 1 0-67.072 0Z" fill="#B28AE4" p-id="3130"></path><path d="M227.072 602.4192A33.4848 33.4848 0 0 0 251.392 634.88a106.3936 106.3936 0 0 0-9.5232-60.1088 33.6384 33.6384 0 0 0-14.7968 27.648z" fill="#9675CC" p-id="3131"></path><path d="M260.608 646.2464a43.8272 43.8272 0 1 1 43.776-43.8272 43.8272 43.8272 0 0 1-43.776 43.8272z m0-67.1232a23.3472 23.3472 0 1 0 23.296 23.296 23.296 23.296 0 0 0-23.296-23.296zM341.8624 852.1728a91.5968 91.5968 0 0 1-91.4944-91.4944v-42.8544a10.24 10.24 0 0 1 20.48 0v42.8544a71.0144 71.0144 0 0 0 142.0288 0V611.328a10.24 10.24 0 0 1 20.48 0v149.3504a91.5968 91.5968 0 0 1-91.4944 91.4944z" fill="#231815" p-id="3132"></path><path d="M465.686225 573.787159a31.5392 23.6544 3.95 1 0 3.25891-47.19642 31.5392 23.6544 3.95 1 0-3.25891 47.19642Z" fill="#FFFFFF" p-id="3133"></path><path d="M579.048474 581.606117a31.5392 23.6544 3.95 1 0 3.25891-47.196421 31.5392 23.6544 3.95 1 0-3.25891 47.196421Z" fill="#FFFFFF" p-id="3134"></path><path d="M464.128 499.968a27.5456 27.5456 0 0 0-29.3376 25.6 7.424 7.424 0 0 0 14.7968 1.024 12.6976 12.6976 0 1 1 25.2928 1.7408 7.3728 7.3728 0 0 0 14.7456 1.024 27.4944 27.4944 0 0 0-25.4976-29.3888zM594.8416 508.9792a27.4944 27.4944 0 0 0-29.2864 25.6 7.3728 7.3728 0 1 0 14.7456 1.024 12.6976 12.6976 0 1 1 25.2928 1.7408 7.3728 7.3728 0 0 0 14.7456 1.024 27.4432 27.4432 0 0 0-25.4976-29.3888zM554.9568 561.8688c-7.3728-2.048-6.3488-12.8512-6.2976-13.4144a7.3728 7.3728 0 0 0-14.6944-1.6896 34.816 34.816 0 0 0 0.4608 10.24c-11.9808 9.5232-29.0304 2.2016-29.9008 1.8432a7.3728 7.3728 0 0 0-6.0928 13.4656 57.9072 57.9072 0 0 0 17.7664 4.2496 39.168 39.168 0 0 0 24.8832-6.144 21.76 21.76 0 0 0 9.8816 5.8368h1.4848a7.3728 7.3728 0 0 0 7.6288-5.4272 7.3216 7.3216 0 0 0-5.12-8.96z" p-id="3135"></path></svg>